# Blender 4.4.3
# www.blender.org
mtllib book.mtl
o Cube
v -0.214562 0.254268 -0.087414
v -0.214562 -0.254268 -0.087414
v 0.199748 0.254268 -0.087414
v 0.199748 -0.254268 -0.087414
v -0.214562 0.254268 0.087341
v -0.214562 -0.254268 0.087341
v 0.199748 0.254268 0.087341
v 0.199748 -0.254268 0.087341
vn -0.0000 1.0000 -0.0000
vn 1.0000 -0.0000 -0.0000
vn -0.0000 -0.0000 1.0000
vn -0.0000 -1.0000 -0.0000
vn -0.0000 -0.0000 -1.0000
vn -1.0000 -0.0000 -0.0000
vt 0.333333 0.512494
vt 0.166667 0.345827
vt 0.333333 0.345827
vt 0.000000 0.513623
vt 0.166667 0.346957
vt 0.166667 0.513623
vt 0.500000 0.500273
vt 0.666667 0.333607
vt 0.666667 0.500273
vt 0.666667 0.666940
vt 0.166667 0.679160
vt 0.333333 0.679160
vt 0.000000 0.680290
vt 0.166667 0.513623
vt 0.166667 0.680290
vt 0.166667 0.512494
vt 0.000000 0.346957
vt 0.500000 0.333607
vt 0.500000 0.666940
vt 0.000000 0.513623
s 0
usemtl Material
f 5/1/1 3/2/1 1/3/1
f 3/4/2 8/5/2 4/6/2
f 7/7/3 6/8/3 8/9/3
f 2/10/4 8/7/4 6/9/4
f 1/11/5 4/1/5 2/12/5
f 5/13/6 2/14/6 6/15/6
f 5/1/1 7/16/1 3/2/1
f 3/4/2 7/17/2 8/5/2
f 7/7/3 5/18/3 6/8/3
f 2/10/4 4/19/4 8/7/4
f 1/11/5 3/16/5 4/1/5
f 5/13/6 1/20/6 2/14/6
o Cube.001
v -0.200066 0.265210 0.086488
v -0.200066 -0.265210 0.086488
v 0.213579 0.265210 0.086488
v 0.213579 -0.265210 0.086488
v -0.200066 0.265210 0.103963
v -0.200066 -0.265210 0.103963
v 0.213579 0.265210 0.103963
v 0.213579 -0.265210 0.103963
vn -0.0000 1.0000 -0.0000
vn 1.0000 -0.0000 -0.0000
vn -0.0000 -0.0000 1.0000
vn -0.0000 -1.0000 -0.0000
vn -0.0000 -0.0000 -1.0000
vn -1.0000 -0.0000 -0.0000
vt 0.833333 0.166667
vt 0.666667 0.000000
vt 0.833333 0.000000
vt 0.666667 0.333333
vt 0.833333 0.166667
vt 0.833333 0.333333
vt 0.666667 0.500000
vt 0.833333 0.333333
vt 0.833333 0.500000
vt 0.833333 0.666667
vt 0.666667 0.500000
vt 0.833333 0.500000
vt 0.666667 0.833333
vt 0.833333 0.666667
vt 0.833333 0.833333
vt 0.500000 0.833606
vt 0.666667 0.666940
vt 0.666667 0.833606
vt 0.666667 0.166667
vt 0.666667 0.166667
vt 0.666667 0.333333
vt 0.666667 0.666667
vt 0.666667 0.666667
vt 0.500000 0.666940
s 0
usemtl Material
f 13/21/7 11/22/7 9/23/7
f 11/24/8 16/25/8 12/26/8
f 15/27/9 14/28/9 16/29/9
f 10/30/10 16/31/10 14/32/10
f 9/33/11 12/34/11 10/35/11
f 13/36/12 10/37/12 14/38/12
f 13/21/7 15/39/7 11/22/7
f 11/24/8 15/40/8 16/25/8
f 15/27/9 13/41/9 14/28/9
f 10/30/10 12/42/10 16/31/10
f 9/33/11 11/43/11 12/34/11
f 13/36/12 9/44/12 10/37/12
o Cube.002
v -0.200066 0.265210 -0.105047
v -0.200066 -0.265210 -0.105047
v 0.213579 0.265210 -0.105047
v 0.213579 -0.265210 -0.105047
v -0.200066 0.265210 -0.087572
v -0.200066 -0.265210 -0.087572
v 0.213579 0.265210 -0.087572
v 0.213579 -0.265210 -0.087572
vn -0.0000 1.0000 -0.0000
vn 1.0000 -0.0000 -0.0000
vn -0.0000 -0.0000 1.0000
vn -0.0000 -1.0000 -0.0000
vn -0.0000 -0.0000 -1.0000
vn -1.0000 -0.0000 -0.0000
vt 0.333333 0.845827
vt 0.166667 0.679160
vt 0.333333 0.679160
vt 0.000000 0.846956
vt 0.166667 0.680290
vt 0.166667 0.846957
vt 0.833333 0.166667
vt 1.000000 0.000000
vt 1.000000 0.166667
vt 1.000000 0.333333
vt 0.833333 0.166667
vt 1.000000 0.166667
vt 0.833333 0.500000
vt 1.000000 0.333333
vt 1.000000 0.500000
vt 0.833333 0.666667
vt 1.000000 0.500000
vt 1.000000 0.666667
vt 0.166667 0.845827
vt 0.000000 0.680290
vt 0.833333 0.000000
vt 0.833333 0.333333
vt 0.833333 0.500000
s 0
usemtl Material
f 21/45/13 19/46/13 17/47/13
f 19/48/14 24/49/14 20/50/14
f 23/51/15 22/52/15 24/53/15
f 18/54/16 24/55/16 22/56/16
f 17/57/17 20/58/17 18/59/17
f 21/60/18 18/61/18 22/62/18
f 21/45/13 23/63/13 19/46/13
f 19/48/14 23/64/14 24/49/14
f 23/51/15 21/65/15 22/52/15
f 18/54/16 20/66/16 24/55/16
f 17/57/17 19/66/17 20/58/17
f 21/60/18 17/67/18 18/61/18
o Cube.004
v -0.219594 0.266814 -0.104456
v -0.219594 -0.266814 -0.104456
v -0.199712 0.266814 -0.104456
v -0.199712 -0.266814 -0.104456
v -0.219594 0.266814 0.104383
v -0.219594 -0.266814 0.104383
v -0.199712 0.266814 0.104383
v -0.199712 -0.266814 0.104383
v -0.199712 0.000000 0.104383
v -0.199712 0.000000 -0.104456
v -0.212521 0.266814 -0.000037
v -0.212521 -0.266814 -0.000037
v -0.212521 0.000000 -0.000037
v -0.199712 0.133407 0.104383
v -0.199712 -0.133407 -0.104456
v -0.210784 0.266814 0.052173
v -0.210784 -0.266814 -0.052246
v -0.199712 -0.133407 0.104383
v -0.199712 0.133407 -0.104456
v -0.210784 0.266814 -0.052246
v -0.210784 -0.266814 0.052173
v -0.210784 0.000000 0.052173
v -0.210784 0.000000 -0.052246
v -0.212521 -0.133407 -0.000037
v -0.212521 0.133407 -0.000037
v -0.210784 0.133407 -0.052246
v -0.210784 -0.133407 -0.052246
v -0.210784 -0.133407 0.052173
v -0.210784 0.133407 0.052173
v -0.231662 -0.266814 -0.088161
v -0.231662 -0.266814 0.088088
v -0.231662 0.266814 -0.088161
v -0.231662 0.266814 0.088088
v -0.240966 -0.266814 -0.067485
v -0.240966 -0.266814 0.067412
v -0.240966 0.266814 -0.067485
v -0.240966 0.266814 0.067412
vn -0.0000 1.0000 -0.0000
vn 0.9782 -0.0000 -0.2075
vn -0.0000 -0.0000 1.0000
vn -0.0000 -1.0000 -0.0000
vn -0.0000 -0.0000 -1.0000
vn -0.8036 -0.0000 -0.5952
vn 0.9994 -0.0000 0.0333
vn 0.9782 -0.0000 0.2075
vn 0.9994 -0.0000 -0.0333
vn -0.9119 -0.0000 0.4104
vn -0.8036 -0.0000 0.5952
vn -1.0000 -0.0000 -0.0000
vn -0.9119 -0.0000 -0.4104
vt 0.333333 0.166667
vt 0.166667 0.166667
vt 0.291667 0.092814
vt 0.333333 0.679160
vt 0.420902 0.720827
vt 0.333333 0.720827
vt 0.541667 0.333607
vt 0.500000 0.333607
vt 0.666667 0.170081
vt 0.500000 0.166667
vt 0.458333 0.092814
vt 0.000000 0.165620
vt 0.083333 -0.000000
vt 0.125000 -0.000000
vt 0.166667 0.165620
vt 0.000000 0.267603
vt 0.333333 0.762494
vt 0.420902 0.804160
vt 0.333333 0.804160
vt 0.420902 0.762494
vt 0.455426 0.804160
vt 0.420902 0.804160
vt 0.420902 0.679160
vt 0.455426 0.720827
vt 0.420902 0.720827
vt 0.455426 0.762494
vt 0.333333 0.554160
vt 0.432450 0.595827
vt 0.333333 0.595827
vt 0.333333 0.512494
vt 0.432450 0.554160
vt 0.455426 0.845827
vt 0.420902 0.845827
vt 0.333333 0.637494
vt 0.432450 0.679160
vt 0.432450 0.637494
vt 0.420902 0.845827
vt 0.333333 0.845827
vt 0.499566 0.845827
vt 0.499566 0.804160
vt 0.420902 0.762494
vt 0.499566 0.762494
vt 0.455426 0.679160
vt 0.499566 0.720827
vt 0.500000 0.073338
vt 0.666667 0.000000
vt 0.666667 0.073338
vt 0.500000 0.170081
vt 0.346337 0.267830
vt 0.179671 0.267830
vt 0.392343 0.345827
vt 0.500000 0.512494
vt 0.392343 0.512494
vt 0.486996 0.267830
vt 0.362838 0.345827
vt 0.320329 0.267830
vt 0.196172 0.345827
vt 0.166667 0.267603
vt 0.000000 0.346956
vt 0.166667 0.000000
vt 0.208333 0.092814
vt 0.250000 0.107381
vt 0.333333 0.000000
vt 0.420902 0.679160
vt 0.666667 0.333607
vt 0.625000 0.333607
vt 0.583333 0.333607
vt 0.375000 0.092814
vt 0.416667 0.107381
vt 0.500000 0.000000
vt 0.166667 0.000000
vt 0.000000 -0.000000
vt 0.041667 -0.000000
vt 0.432450 0.512494
vt 0.499566 0.679160
vt 0.500000 -0.000000
vt 0.500000 0.345827
vt 0.470495 0.345827
vt 0.303828 0.345827
vt 0.166667 0.346957
s 0
usemtl Material
f 25/68/19 29/69/19 44/70/19
f 40/71/20 38/72/20 53/73/20
f 38/74/21 31/75/21 30/76/21
f 30/77/22 26/68/22 45/78/22
f 25/79/23 34/80/23 39/81/23
f 26/82/24 56/83/24 25/79/24
f 46/84/20 42/85/20 52/86/20
f 47/87/25 48/88/25 51/89/25
f 44/90/25 49/91/25 50/92/25
f 50/92/25 37/93/25 47/87/25
f 43/94/26 47/95/26 34/96/26
f 27/97/26 50/98/26 43/94/26
f 51/89/25 36/99/25 41/100/25
f 39/101/26 41/102/26 28/71/26
f 34/96/26 51/103/26 39/101/26
f 52/86/20 32/104/20 45/105/20
f 48/88/27 45/106/27 36/99/27
f 37/93/27 52/107/27 48/88/27
f 53/73/20 33/108/20 46/84/20
f 49/91/27 46/109/27 37/93/27
f 35/110/27 53/111/27 49/91/27
f 57/112/28 59/113/28 55/114/28
f 29/115/29 55/114/29 30/76/29
f 30/77/22 54/116/22 26/68/22
f 25/68/19 57/117/19 29/69/19
f 61/118/30 58/119/30 59/120/30
f 55/121/22 58/122/22 54/116/22
f 56/123/19 61/124/19 57/117/19
f 54/125/31 60/126/31 56/83/31
f 29/69/19 31/127/19 40/128/19
f 29/69/19 40/128/19 35/129/19
f 44/70/19 27/130/19 25/68/19
f 29/69/19 35/129/19 44/70/19
f 40/71/20 31/131/20 38/72/20
f 30/76/21 32/132/21 42/133/21
f 30/76/21 42/133/21 33/134/21
f 31/75/21 29/115/21 30/76/21
f 30/76/21 33/134/21 38/74/21
f 26/68/22 28/130/22 41/135/22
f 26/68/22 41/135/22 36/136/22
f 45/78/22 32/137/22 30/77/22
f 26/68/22 36/136/22 45/78/22
f 28/138/23 26/82/23 25/79/23
f 25/79/23 27/139/23 43/140/23
f 25/79/23 43/140/23 34/80/23
f 39/81/23 28/138/23 25/79/23
f 26/82/24 54/125/24 56/83/24
f 46/84/20 33/108/20 42/85/20
f 47/87/25 37/93/25 48/88/25
f 44/90/25 35/110/25 49/91/25
f 50/92/25 49/91/25 37/93/25
f 43/94/26 50/98/26 47/95/26
f 27/97/26 44/141/26 50/98/26
f 51/89/25 48/88/25 36/99/25
f 39/101/26 51/103/26 41/102/26
f 34/96/26 47/95/26 51/103/26
f 52/86/20 42/85/20 32/104/20
f 48/88/27 52/107/27 45/106/27
f 37/93/27 46/109/27 52/107/27
f 53/73/20 38/72/20 33/108/20
f 49/91/27 53/111/27 46/109/27
f 35/110/27 40/142/27 53/111/27
f 57/112/28 61/143/28 59/113/28
f 29/115/29 57/112/29 55/114/29
f 30/77/22 55/121/22 54/116/22
f 25/68/19 56/123/19 57/117/19
f 61/118/30 60/144/30 58/119/30
f 55/121/22 59/145/22 58/122/22
f 56/123/19 60/146/19 61/124/19
f 54/125/31 58/147/31 60/126/31
