# Blender 4.4.3
# www.blender.org
mtllib lamp.mtl
o Cone
v 0.000000 1.000000 -0.559870
v 0.195090 0.980785 -0.559870
v 0.382683 0.923880 -0.559870
v 0.555570 0.831470 -0.559870
v 0.707107 0.707107 -0.559870
v 0.831470 0.555570 -0.559870
v 0.923880 0.382683 -0.559870
v 0.980785 0.195090 -0.559870
v 1.000000 0.000000 -0.559870
v 0.980785 -0.195090 -0.559870
v 0.923880 -0.382683 -0.559870
v 0.831470 -0.555570 -0.559870
v 0.707107 -0.707107 -0.559870
v 0.555570 -0.831470 -0.559870
v 0.382683 -0.923880 -0.559870
v 0.195090 -0.980785 -0.559870
v 0.000000 -1.000000 -0.559870
v -0.195090 -0.980785 -0.559870
v -0.382683 -0.923880 -0.559870
v -0.555570 -0.831470 -0.559870
v -0.707107 -0.707107 -0.559870
v -0.831470 -0.555570 -0.559870
v -0.923880 -0.382683 -0.559870
v -0.980785 -0.195090 -0.559870
v -1.000000 0.000000 -0.559870
v -0.980785 0.195090 -0.559870
v -0.923880 0.382683 -0.559870
v -0.831470 0.555570 -0.559870
v -0.707107 0.707107 -0.559870
v -0.555570 0.831470 -0.559870
v -0.382683 0.923880 -0.559870
v -0.195090 0.980785 -0.559870
v 0.000000 -0.000000 0.440130
v -0.000000 0.964456 -0.562004
v 0.188156 0.945925 -0.562004
v 0.369081 0.891042 -0.562004
v 0.539396 0.795788 -0.560667
v 0.685546 0.675846 -0.560667
v 0.801916 0.535823 -0.562004
v 0.891042 0.369082 -0.562004
v 0.945925 0.188156 -0.562004
v 0.964456 0.000000 -0.562004
v 0.945925 -0.188156 -0.562004
v 0.891042 -0.369081 -0.562004
v 0.801916 -0.535823 -0.562004
v 0.681974 -0.681974 -0.562004
v 0.535823 -0.801916 -0.562004
v 0.369081 -0.891042 -0.562004
v 0.188156 -0.945925 -0.562004
v -0.000000 -0.964456 -0.562004
v -0.188156 -0.945925 -0.562004
v -0.369081 -0.891042 -0.562004
v -0.535823 -0.801916 -0.562004
v -0.681974 -0.681974 -0.562004
v -0.801916 -0.535823 -0.562004
v -0.891042 -0.369081 -0.562004
v -0.945925 -0.188156 -0.562004
v -0.964456 0.000000 -0.562004
v -0.945925 0.188156 -0.562004
v -0.891042 0.369082 -0.562004
v -0.801916 0.535823 -0.562004
v -0.681974 0.681974 -0.562004
v -0.535823 0.801916 -0.562004
v -0.369081 0.891042 -0.562004
v -0.188156 0.945925 -0.562004
v 0.003572 -0.006128 0.251090
vn -0.0000 0.7005 -0.7136
vn 0.1367 0.6871 -0.7136
vn 0.2681 0.6472 -0.7136
vn 0.3762 0.5553 -0.7418
vn 0.4727 0.4731 -0.7435
vn 0.5784 0.3915 -0.7156
vn 0.6472 0.2681 -0.7136
vn 0.6870 0.1367 -0.7137
vn 0.7005 -0.0000 -0.7136
vn 0.6871 -0.1367 -0.7136
vn 0.6472 -0.2681 -0.7136
vn 0.5825 -0.3892 -0.7136
vn 0.4953 -0.4953 -0.7137
vn 0.3892 -0.5825 -0.7136
vn 0.2681 -0.6472 -0.7136
vn 0.1367 -0.6870 -0.7137
vn -0.0000 -0.7005 -0.7136
vn -0.1367 -0.6871 -0.7136
vn -0.2681 -0.6472 -0.7136
vn -0.3892 -0.5825 -0.7136
vn -0.4953 -0.4953 -0.7137
vn -0.5825 -0.3892 -0.7136
vn -0.6472 -0.2681 -0.7136
vn -0.6871 -0.1367 -0.7136
vn -0.7005 -0.0000 -0.7136
vn -0.6871 0.1367 -0.7136
vn -0.6472 0.2681 -0.7136
vn -0.5825 0.3892 -0.7136
vn -0.4953 0.4953 -0.7137
vn -0.3892 0.5825 -0.7136
vn -0.2681 0.6472 -0.7136
vn -0.1367 0.6870 -0.7137
vn -0.0000 -0.0000 1.0000
vn -0.0000 -0.2209 -0.9753
vn -0.0431 -0.2168 -0.9753
vn -0.0852 -0.2031 -0.9754
vn -0.1363 -0.2059 -0.9690
vn -0.1731 -0.1725 -0.9697
vn -0.1850 -0.1200 -0.9754
vn -0.2049 -0.0849 -0.9751
vn -0.2177 -0.0434 -0.9751
vn -0.2221 -0.0001 -0.9750
vn -0.2180 0.0433 -0.9750
vn -0.2055 0.0851 -0.9750
vn -0.1850 0.1236 -0.9749
vn -0.1574 0.1573 -0.9749
vn -0.1236 0.1850 -0.9749
vn -0.0852 0.2056 -0.9749
vn -0.0434 0.2182 -0.9749
vn -0.0000 0.2224 -0.9749
vn 0.0434 0.2181 -0.9750
vn 0.0851 0.2053 -0.9750
vn 0.1234 0.1846 -0.9750
vn 0.1569 0.1569 -0.9751
vn 0.1844 0.1231 -0.9751
vn 0.2047 0.0847 -0.9751
vn 0.2172 0.0431 -0.9752
vn 0.2212 -0.0001 -0.9752
vn 0.2168 -0.0432 -0.9752
vn 0.2042 -0.0846 -0.9753
vn 0.1837 -0.1227 -0.9753
vn 0.1561 -0.1562 -0.9753
vn 0.1227 -0.1836 -0.9753
vn 0.0845 -0.2040 -0.9753
vn 0.0431 -0.2166 -0.9753
vn -0.0008 0.0014 -1.0000
vt 0.450764 0.999900
vt 0.500000 0.500000
vt 0.549236 0.999900
vt 0.645815 0.980689
vt 0.736791 0.943006
vt 0.818668 0.888298
vt 0.888298 0.818668
vt 0.943006 0.736792
vt 0.980689 0.645816
vt 0.999900 0.549236
vt 0.999900 0.450764
vt 0.980689 0.354185
vt 0.943006 0.263209
vt 0.888298 0.181333
vt 0.818668 0.111702
vt 0.736792 0.056994
vt 0.645816 0.019311
vt 0.549236 0.000100
vt 0.450764 0.000100
vt 0.354185 0.019311
vt 0.263209 0.056994
vt 0.181332 0.111702
vt 0.111702 0.181332
vt 0.056994 0.263208
vt 0.019311 0.354184
vt 0.000100 0.450764
vt 0.000100 0.549236
vt 0.019311 0.645815
vt 0.056994 0.736791
vt 0.111702 0.818668
vt 0.181332 0.888298
vt 0.263208 0.943006
vt 0.942350 0.262368
vt 0.963026 0.358282
vt 0.926618 0.270766
vt 0.354184 0.980689
vt 0.641994 0.963083
vt 0.548834 0.981873
vt 0.501311 0.498826
vt 0.738135 0.942241
vt 0.808542 0.873450
vt 0.819912 0.887266
vt 0.019253 0.354237
vt 0.017787 0.452661
vt 0.000109 0.450924
vt 0.112030 0.819138
vt 0.193242 0.874973
vt 0.181879 0.888810
vt 0.548785 0.000100
vt 0.452314 0.017850
vt 0.450597 0.000100
vt 0.999427 0.449445
vt 0.980090 0.353109
vt 0.647197 0.980190
vt 0.729692 0.926479
vt 0.057239 0.263238
vt 0.036468 0.359478
vt 0.057149 0.737165
vt 0.125876 0.807791
vt 0.645265 0.019084
vt 0.547064 0.017730
vt 0.999649 0.547547
vt 0.981699 0.451198
vt 0.550601 0.999655
vt 0.112031 0.181535
vt 0.075761 0.269580
vt 0.036485 0.640890
vt 0.072944 0.728744
vt 0.727858 0.072428
vt 0.640073 0.036284
vt 0.980986 0.643895
vt 0.982040 0.545877
vt 0.452183 0.999900
vt 0.181374 0.111698
vt 0.128617 0.190714
vt 0.000100 0.549361
vt 0.019353 0.646060
vt 0.736290 0.056687
vt 0.806755 0.125042
vt 0.928005 0.726671
vt 0.963889 0.638834
vt 0.355394 0.981066
vt 0.453869 0.982219
vt 0.263167 0.056929
vt 0.192705 0.125486
vt 0.887653 0.180710
vt 0.818087 0.111263
vt 0.943826 0.734990
vt 0.875472 0.805891
vt 0.272458 0.927686
vt 0.360570 0.963805
vt 0.359265 0.036361
vt 0.271574 0.072703
vt 0.017893 0.547636
vt 0.873857 0.192013
vt 0.889441 0.817258
vt 0.264018 0.943491
vt 0.354115 0.019265
s 1
f 1/1/1 33/2/33 2/3/2
f 2/3/2 33/2/33 3/4/3
f 3/4/3 33/2/33 4/5/4
f 4/5/4 33/2/33 5/6/5
f 5/6/5 33/2/33 6/7/6
f 6/7/6 33/2/33 7/8/7
f 7/8/7 33/2/33 8/9/8
f 8/9/8 33/2/33 9/10/9
f 9/10/9 33/2/33 10/11/10
f 10/11/10 33/2/33 11/12/11
f 11/12/11 33/2/33 12/13/12
f 12/13/12 33/2/33 13/14/13
f 13/14/13 33/2/33 14/15/14
f 14/15/14 33/2/33 15/16/15
f 15/16/15 33/2/33 16/17/16
f 16/17/16 33/2/33 17/18/17
f 17/18/17 33/2/33 18/19/18
f 18/19/18 33/2/33 19/20/19
f 19/20/19 33/2/33 20/21/20
f 20/21/20 33/2/33 21/22/21
f 21/22/21 33/2/33 22/23/22
f 22/23/22 33/2/33 23/24/23
f 23/24/23 33/2/33 24/25/24
f 24/25/24 33/2/33 25/26/25
f 25/26/25 33/2/33 26/27/26
f 26/27/26 33/2/33 27/28/27
f 27/28/27 33/2/33 28/29/28
f 28/29/28 33/2/33 29/30/29
f 29/30/29 33/2/33 30/31/30
f 30/31/30 33/2/33 31/32/31
f 15/33/15 49/34/49 48/35/48
f 31/32/31 33/2/33 32/36/32
f 32/36/32 33/2/33 1/1/1
f 57/37/57 58/38/58 66/39/66
f 23/40/23 55/41/55 22/42/22
f 3/43/3 35/44/35 2/45/2
f 30/46/30 62/47/62 29/48/29
f 10/49/10 42/50/42 9/51/9
f 17/52/17 49/34/49 16/53/16
f 24/54/24 56/55/56 23/40/23
f 4/56/4 36/57/36 3/43/3
f 31/58/31 63/59/63 30/46/30
f 11/60/11 43/61/43 10/49/10
f 18/62/18 50/63/50 17/52/17
f 25/64/25 57/37/57 24/54/24
f 5/65/5 37/66/37 4/56/4
f 31/58/31 65/67/65 64/68/64
f 11/60/11 45/69/45 44/70/44
f 19/71/19 51/72/51 18/62/18
f 26/73/26 58/38/58 25/64/25
f 6/74/6 38/75/38 5/65/5
f 1/76/1 65/67/65 32/77/32
f 12/78/12 46/79/46 45/69/45
f 19/71/19 53/80/53 52/81/52
f 27/82/27 59/83/59 26/73/26
f 7/84/7 39/85/39 6/74/6
f 14/86/14 46/79/46 13/87/13
f 20/88/20 54/89/54 53/80/53
f 27/82/27 61/90/61 60/91/60
f 7/84/7 41/92/41 40/93/40
f 2/45/2 34/94/34 1/76/1
f 15/33/15 47/95/47 14/86/14
f 22/42/22 54/89/54 21/96/21
f 28/97/28 62/47/62 61/90/61
f 9/51/9 41/92/41 8/98/8
f 44/70/44 45/69/45 66/39/66
f 58/38/58 59/83/59 66/39/66
f 45/69/45 46/79/46 66/39/66
f 59/83/59 60/91/60 66/39/66
f 46/79/46 47/95/47 66/39/66
f 60/91/60 61/90/61 66/39/66
f 47/95/47 48/35/48 66/39/66
f 34/94/34 35/44/35 66/39/66
f 61/90/61 62/47/62 66/39/66
f 48/35/48 49/34/49 66/39/66
f 35/44/35 36/57/36 66/39/66
f 62/47/62 63/59/63 66/39/66
f 49/34/49 50/63/50 66/39/66
f 36/57/36 37/66/37 66/39/66
f 63/59/63 64/68/64 66/39/66
f 50/63/50 51/72/51 66/39/66
f 37/66/37 38/75/38 66/39/66
f 64/68/64 65/67/65 66/39/66
f 51/72/51 52/81/52 66/39/66
f 38/75/38 39/85/39 66/39/66
f 65/67/65 34/94/34 66/39/66
f 52/81/52 53/80/53 66/39/66
f 39/85/39 40/93/40 66/39/66
f 53/80/53 54/89/54 66/39/66
f 40/93/40 41/92/41 66/39/66
f 54/89/54 55/41/55 66/39/66
f 41/92/41 42/50/42 66/39/66
f 55/41/55 56/55/56 66/39/66
f 42/50/42 43/61/43 66/39/66
f 56/55/56 57/37/57 66/39/66
f 43/61/43 44/70/44 66/39/66
f 15/33/15 16/53/16 49/34/49
f 23/40/23 56/55/56 55/41/55
f 3/43/3 36/57/36 35/44/35
f 30/46/30 63/59/63 62/47/62
f 10/49/10 43/61/43 42/50/42
f 17/52/17 50/63/50 49/34/49
f 24/54/24 57/37/57 56/55/56
f 4/56/4 37/66/37 36/57/36
f 31/58/31 64/68/64 63/59/63
f 11/60/11 44/70/44 43/61/43
f 18/62/18 51/72/51 50/63/50
f 25/64/25 58/38/58 57/37/57
f 5/65/5 38/75/38 37/66/37
f 31/58/31 32/77/32 65/67/65
f 11/60/11 12/78/12 45/69/45
f 19/71/19 52/81/52 51/72/51
f 26/73/26 59/83/59 58/38/58
f 6/74/6 39/85/39 38/75/38
f 1/76/1 34/94/34 65/67/65
f 12/78/12 13/87/13 46/79/46
f 19/71/19 20/88/20 53/80/53
f 27/82/27 60/91/60 59/83/59
f 7/84/7 40/93/40 39/85/39
f 14/86/14 47/95/47 46/79/46
f 20/88/20 21/96/21 54/89/54
f 27/82/27 28/97/28 61/90/61
f 7/84/7 8/98/8 41/92/41
f 2/45/2 35/44/35 34/94/34
f 15/33/15 48/35/48 47/95/47
f 22/42/22 55/41/55 54/89/54
f 28/97/28 29/48/29 62/47/62
f 9/51/9 42/50/42 41/92/41
o Sphere
v 0.000000 0.087259 0.190463
v 0.000000 0.130593 0.147130
v 0.000000 0.154045 0.090512
v 0.000000 0.157063 0.059870
v 0.000000 0.154045 0.029229
v 0.000000 0.130593 -0.027389
v 0.005978 0.030053 0.213915
v 0.011726 0.058950 0.204977
v 0.017023 0.085583 0.190463
v 0.021667 0.108926 0.170930
v 0.025477 0.128084 0.147130
v 0.028309 0.142319 0.119975
v 0.030053 0.151085 0.090512
v 0.030641 0.154045 0.059870
v 0.030053 0.151085 0.029229
v 0.028309 0.142319 -0.000235
v 0.025477 0.128084 -0.027389
v 0.021667 0.108926 -0.051190
v 0.017023 0.085583 -0.070723
v 0.011726 0.058950 -0.085237
v 0.005978 0.030053 -0.094175
v 0.011726 0.028309 0.213915
v 0.023001 0.055530 0.204977
v 0.033393 0.080617 0.190463
v 0.042501 0.102606 0.170930
v 0.049976 0.120652 0.147130
v 0.055530 0.134061 0.119975
v 0.058950 0.142319 0.090512
v 0.060105 0.145107 0.059870
v 0.058950 0.142319 0.029229
v 0.055530 0.134061 -0.000235
v 0.049976 0.120652 -0.027389
v 0.042501 0.102606 -0.051190
v 0.033393 0.080617 -0.070723
v 0.023001 0.055530 -0.085237
v 0.011726 0.028309 -0.094175
v 0.017023 0.025477 0.213915
v 0.033393 0.049976 0.204977
v 0.048479 0.072553 0.190463
v 0.061702 0.092343 0.170930
v 0.072554 0.108584 0.147130
v 0.080617 0.120652 0.119975
v 0.085583 0.128084 0.090512
v 0.087259 0.130593 0.059870
v 0.085583 0.128084 0.029229
v 0.080617 0.120652 -0.000235
v 0.072554 0.108584 -0.027389
v 0.061702 0.092343 -0.051190
v 0.048479 0.072554 -0.070723
v 0.033393 0.049976 -0.085237
v 0.017023 0.025477 -0.094175
v 0.021667 0.021667 0.213915
v 0.042501 0.042501 0.204977
v 0.061702 0.061702 0.190463
v 0.078531 0.078531 0.170930
v 0.092343 0.092343 0.147130
v 0.102606 0.102606 0.119975
v 0.108926 0.108926 0.090512
v 0.111060 0.111060 0.059870
v 0.108926 0.108926 0.029229
v 0.102606 0.102606 -0.000235
v 0.092343 0.092343 -0.027389
v 0.078531 0.078531 -0.051190
v 0.061702 0.061702 -0.070723
v 0.042501 0.042501 -0.085237
v 0.021667 0.021667 -0.094175
v 0.025477 0.017023 0.213915
v 0.049976 0.033393 0.204977
v 0.072554 0.048479 0.190463
v 0.092343 0.061702 0.170930
v 0.108584 0.072553 0.147130
v 0.120652 0.080617 0.119975
v 0.128084 0.085583 0.090512
v 0.130593 0.087259 0.059870
v 0.128084 0.085583 0.029229
v 0.120652 0.080617 -0.000235
v 0.108584 0.072554 -0.027389
v 0.092343 0.061702 -0.051190
v 0.072554 0.048479 -0.070723
v 0.049976 0.033393 -0.085237
v 0.025477 0.017023 -0.094175
v 0.000000 -0.000000 0.216933
v 0.028309 0.011726 0.213915
v 0.055530 0.023001 0.204977
v 0.080617 0.033393 0.190463
v 0.102606 0.042501 0.170930
v 0.120652 0.049976 0.147130
v 0.134061 0.055530 0.119975
v 0.142319 0.058950 0.090512
v 0.145107 0.060105 0.059870
v 0.142319 0.058950 0.029229
v 0.134061 0.055530 -0.000235
v 0.120652 0.049976 -0.027389
v 0.102606 0.042501 -0.051190
v 0.080617 0.033393 -0.070723
v 0.055530 0.023001 -0.085237
v 0.028309 0.011726 -0.094175
v 0.030053 0.005978 0.213915
v 0.058950 0.011726 0.204977
v 0.085583 0.017023 0.190463
v 0.108926 0.021667 0.170930
v 0.128084 0.025477 0.147130
v 0.142319 0.028309 0.119975
v 0.151085 0.030053 0.090512
v 0.154045 0.030641 0.059870
v 0.151085 0.030053 0.029229
v 0.142319 0.028309 -0.000235
v 0.128084 0.025477 -0.027389
v 0.108926 0.021667 -0.051190
v 0.085583 0.017023 -0.070723
v 0.058950 0.011726 -0.085237
v 0.030053 0.005978 -0.094175
v 0.030641 -0.000000 0.213915
v 0.060105 -0.000000 0.204977
v 0.087259 -0.000000 0.190463
v 0.111060 -0.000000 0.170930
v 0.130593 -0.000000 0.147130
v 0.145107 0.000000 0.119975
v 0.154045 -0.000000 0.090512
v 0.157063 -0.000000 0.059870
v 0.154045 -0.000000 0.029229
v 0.145107 0.000000 -0.000235
v 0.130593 -0.000000 -0.027389
v 0.111060 0.000000 -0.051190
v 0.087259 -0.000000 -0.070723
v 0.060105 0.000000 -0.085237
v 0.030641 0.000000 -0.094175
v 0.030053 -0.005978 0.213915
v 0.058950 -0.011726 0.204977
v 0.085583 -0.017023 0.190463
v 0.108926 -0.021667 0.170930
v 0.128084 -0.025477 0.147130
v 0.142319 -0.028309 0.119975
v 0.151085 -0.030053 0.090512
v 0.154045 -0.030641 0.059870
v 0.151085 -0.030053 0.029229
v 0.142319 -0.028309 -0.000235
v 0.128084 -0.025477 -0.027389
v 0.108926 -0.021667 -0.051190
v 0.085583 -0.017023 -0.070723
v 0.058950 -0.011726 -0.085237
v 0.030053 -0.005978 -0.094175
v 0.028309 -0.011726 0.213915
v 0.055530 -0.023001 0.204977
v 0.080617 -0.033393 0.190463
v 0.102606 -0.042501 0.170930
v 0.120652 -0.049976 0.147130
v 0.134061 -0.055530 0.119975
v 0.142319 -0.058950 0.090512
v 0.145107 -0.060105 0.059870
v 0.142319 -0.058950 0.029229
v 0.134061 -0.055530 -0.000235
v 0.120652 -0.049976 -0.027389
v 0.102606 -0.042501 -0.051190
v 0.080617 -0.033393 -0.070723
v 0.055530 -0.023001 -0.085237
v 0.028309 -0.011726 -0.094175
v 0.025477 -0.017023 0.213915
v 0.049976 -0.033393 0.204977
v 0.072553 -0.048479 0.190463
v 0.092343 -0.061702 0.170930
v 0.108584 -0.072554 0.147130
v 0.120652 -0.080617 0.119975
v 0.128084 -0.085583 0.090512
v 0.130593 -0.087259 0.059870
v 0.128084 -0.085583 0.029229
v 0.120652 -0.080617 -0.000235
v 0.108584 -0.072553 -0.027389
v 0.092343 -0.061702 -0.051190
v 0.072553 -0.048479 -0.070723
v 0.049976 -0.033393 -0.085237
v 0.025477 -0.017023 -0.094175
v 0.021667 -0.021667 0.213915
v 0.042501 -0.042501 0.204977
v 0.061702 -0.061702 0.190463
v 0.078531 -0.078531 0.170930
v 0.092343 -0.092343 0.147130
v 0.102606 -0.102606 0.119975
v 0.108926 -0.108926 0.090512
v 0.111060 -0.111060 0.059870
v 0.108926 -0.108926 0.029229
v 0.102606 -0.102606 -0.000235
v 0.092343 -0.092343 -0.027389
v 0.078531 -0.078531 -0.051190
v 0.061702 -0.061702 -0.070723
v 0.042501 -0.042501 -0.085237
v 0.021667 -0.021667 -0.094175
v 0.017023 -0.025477 0.213915
v 0.033393 -0.049976 0.204977
v 0.048479 -0.072554 0.190463
v 0.061702 -0.092343 0.170930
v 0.072553 -0.108584 0.147130
v 0.080617 -0.120652 0.119975
v 0.085583 -0.128084 0.090512
v 0.087259 -0.130593 0.059870
v 0.085583 -0.128084 0.029229
v 0.080617 -0.120652 -0.000235
v 0.072553 -0.108584 -0.027389
v 0.061702 -0.092343 -0.051190
v 0.048479 -0.072553 -0.070723
v 0.033393 -0.049976 -0.085237
v 0.017023 -0.025477 -0.094175
v 0.011726 -0.028309 0.213915
v 0.023001 -0.055530 0.204977
v 0.033393 -0.080617 0.190463
v 0.042501 -0.102606 0.170930
v 0.049976 -0.120652 0.147130
v 0.055530 -0.134061 0.119975
v 0.058950 -0.142319 0.090512
v 0.060105 -0.145107 0.059870
v 0.058950 -0.142319 0.029229
v 0.055530 -0.134061 -0.000235
v 0.049976 -0.120652 -0.027389
v 0.042501 -0.102606 -0.051190
v 0.033393 -0.080617 -0.070723
v 0.023001 -0.055530 -0.085237
v 0.011726 -0.028309 -0.094175
v 0.005978 -0.030053 0.213915
v 0.011726 -0.058950 0.204977
v 0.017023 -0.085583 0.190463
v 0.021667 -0.108926 0.170930
v 0.025477 -0.128084 0.147130
v 0.028309 -0.142319 0.119975
v 0.030053 -0.151085 0.090512
v 0.030641 -0.154045 0.059870
v 0.030053 -0.151085 0.029229
v 0.028309 -0.142319 -0.000235
v 0.025477 -0.128084 -0.027389
v 0.021667 -0.108926 -0.051190
v 0.017023 -0.085583 -0.070723
v 0.011726 -0.058950 -0.085237
v 0.005978 -0.030053 -0.094175
v -0.000000 -0.030641 0.213915
v -0.000000 -0.060105 0.204977
v -0.000000 -0.087259 0.190463
v -0.000000 -0.111060 0.170930
v -0.000000 -0.130593 0.147130
v 0.000000 -0.145107 0.119975
v -0.000000 -0.154045 0.090512
v -0.000000 -0.157063 0.059870
v -0.000000 -0.154045 0.029229
v 0.000000 -0.145107 -0.000235
v -0.000000 -0.130593 -0.027389
v -0.000000 -0.111060 -0.051190
v -0.000000 -0.087259 -0.070723
v -0.000000 -0.060105 -0.085237
v -0.000000 -0.030641 -0.094175
v -0.005978 -0.030053 0.213915
v -0.011726 -0.058950 0.204977
v -0.017023 -0.085583 0.190463
v -0.021667 -0.108926 0.170930
v -0.025477 -0.128084 0.147130
v -0.028309 -0.142319 0.119975
v -0.030053 -0.151085 0.090512
v -0.030641 -0.154045 0.059870
v -0.030053 -0.151085 0.029229
v -0.028309 -0.142319 -0.000235
v -0.025477 -0.128084 -0.027389
v -0.021667 -0.108926 -0.051190
v -0.017023 -0.085583 -0.070723
v -0.011726 -0.058950 -0.085237
v -0.005978 -0.030053 -0.094175
v -0.011726 -0.028309 0.213915
v -0.023001 -0.055530 0.204977
v -0.033393 -0.080617 0.190463
v -0.042501 -0.102606 0.170930
v -0.049976 -0.120652 0.147130
v -0.055530 -0.134061 0.119975
v -0.058950 -0.142319 0.090512
v -0.060105 -0.145107 0.059870
v -0.058950 -0.142319 0.029229
v -0.055530 -0.134061 -0.000235
v -0.049976 -0.120652 -0.027389
v -0.042501 -0.102606 -0.051190
v -0.033393 -0.080617 -0.070723
v -0.023001 -0.055530 -0.085237
v -0.011726 -0.028309 -0.094175
v -0.017023 -0.025477 0.213915
v -0.033393 -0.049976 0.204977
v -0.048479 -0.072553 0.190463
v -0.061702 -0.092343 0.170930
v -0.072553 -0.108584 0.147130
v -0.080617 -0.120652 0.119975
v -0.085583 -0.128083 0.090512
v -0.087259 -0.130593 0.059870
v -0.085583 -0.128083 0.029229
v -0.080617 -0.120652 -0.000235
v -0.072553 -0.108584 -0.027389
v -0.061702 -0.092343 -0.051190
v -0.048479 -0.072553 -0.070723
v -0.033393 -0.049976 -0.085237
v -0.017023 -0.025477 -0.094175
v -0.021667 -0.021667 0.213915
v -0.042501 -0.042501 0.204977
v -0.061702 -0.061702 0.190463
v -0.078531 -0.078531 0.170930
v -0.092343 -0.092343 0.147130
v -0.102606 -0.102606 0.119975
v -0.108926 -0.108926 0.090512
v -0.111060 -0.111060 0.059870
v -0.108926 -0.108926 0.029229
v -0.102606 -0.102606 -0.000235
v -0.092343 -0.092343 -0.027389
v -0.078531 -0.078531 -0.051190
v -0.061702 -0.061702 -0.070723
v -0.042501 -0.042501 -0.085237
v -0.021667 -0.021667 -0.094175
v 0.000000 0.000000 -0.097193
v -0.025477 -0.017023 0.213915
v -0.049976 -0.033393 0.204977
v -0.072553 -0.048479 0.190463
v -0.092343 -0.061702 0.170930
v -0.108584 -0.072553 0.147130
v -0.120652 -0.080617 0.119975
v -0.128084 -0.085583 0.090512
v -0.130593 -0.087259 0.059870
v -0.128084 -0.085583 0.029229
v -0.120652 -0.080617 -0.000235
v -0.108584 -0.072553 -0.027389
v -0.092343 -0.061702 -0.051190
v -0.072553 -0.048479 -0.070723
v -0.049976 -0.033393 -0.085237
v -0.025477 -0.017023 -0.094175
v -0.028309 -0.011726 0.213915
v -0.055530 -0.023001 0.204977
v -0.080617 -0.033393 0.190463
v -0.102606 -0.042501 0.170930
v -0.120652 -0.049976 0.147130
v -0.134061 -0.055530 0.119975
v -0.142319 -0.058950 0.090512
v -0.145107 -0.060105 0.059870
v -0.142319 -0.058950 0.029229
v -0.134061 -0.055530 -0.000235
v -0.120652 -0.049976 -0.027389
v -0.102606 -0.042501 -0.051190
v -0.080617 -0.033393 -0.070723
v -0.055530 -0.023001 -0.085237
v -0.028309 -0.011726 -0.094175
v -0.030053 -0.005978 0.213915
v -0.058950 -0.011726 0.204977
v -0.085583 -0.017023 0.190463
v -0.108926 -0.021667 0.170930
v -0.128083 -0.025477 0.147130
v -0.142319 -0.028309 0.119975
v -0.151085 -0.030053 0.090512
v -0.154045 -0.030641 0.059870
v -0.151085 -0.030053 0.029229
v -0.142319 -0.028309 -0.000235
v -0.128083 -0.025477 -0.027389
v -0.108926 -0.021667 -0.051190
v -0.085583 -0.017023 -0.070723
v -0.058950 -0.011726 -0.085237
v -0.030053 -0.005978 -0.094175
v -0.030641 -0.000000 0.213915
v -0.060105 0.000000 0.204977
v -0.087259 0.000000 0.190463
v -0.111060 -0.000000 0.170930
v -0.130593 0.000000 0.147130
v -0.145107 -0.000000 0.119975
v -0.154045 0.000000 0.090512
v -0.157063 0.000000 0.059870
v -0.154045 0.000000 0.029229
v -0.145107 0.000000 -0.000235
v -0.130593 0.000000 -0.027389
v -0.111060 0.000000 -0.051190
v -0.087259 0.000000 -0.070723
v -0.060105 0.000000 -0.085237
v -0.030641 0.000000 -0.094175
v -0.030053 0.005978 0.213915
v -0.058950 0.011726 0.204977
v -0.085583 0.017023 0.190463
v -0.108926 0.021667 0.170930
v -0.128083 0.025477 0.147130
v -0.142319 0.028309 0.119975
v -0.151085 0.030053 0.090512
v -0.154045 0.030641 0.059870
v -0.151085 0.030053 0.029229
v -0.142319 0.028309 -0.000235
v -0.128083 0.025477 -0.027389
v -0.108926 0.021667 -0.051190
v -0.085583 0.017023 -0.070723
v -0.058950 0.011726 -0.085237
v -0.030053 0.005978 -0.094175
v -0.028309 0.011726 0.213915
v -0.055530 0.023001 0.204977
v -0.080617 0.033393 0.190463
v -0.102606 0.042501 0.170930
v -0.120652 0.049976 0.147130
v -0.134061 0.055530 0.119975
v -0.142319 0.058950 0.090512
v -0.145107 0.060105 0.059870
v -0.142319 0.058950 0.029229
v -0.134061 0.055530 -0.000235
v -0.120652 0.049976 -0.027389
v -0.102606 0.042501 -0.051190
v -0.080617 0.033393 -0.070723
v -0.055530 0.023001 -0.085237
v -0.028309 0.011726 -0.094175
v -0.025477 0.017023 0.213915
v -0.049976 0.033393 0.204977
v -0.072553 0.048479 0.190463
v -0.092343 0.061702 0.170930
v -0.108584 0.072553 0.147130
v -0.120652 0.080617 0.119975
v -0.128083 0.085583 0.090512
v -0.130593 0.087259 0.059870
v -0.128083 0.085583 0.029229
v -0.120652 0.080617 -0.000235
v -0.108584 0.072554 -0.027389
v -0.092343 0.061702 -0.051190
v -0.072553 0.048479 -0.070723
v -0.049976 0.033393 -0.085237
v -0.025477 0.017023 -0.094175
v -0.021667 0.021667 0.213915
v -0.042501 0.042501 0.204977
v -0.061702 0.061702 0.190463
v -0.078531 0.078531 0.170930
v -0.092343 0.092343 0.147130
v -0.102606 0.102606 0.119975
v -0.108926 0.108926 0.090512
v -0.111060 0.111060 0.059870
v -0.108926 0.108926 0.029229
v -0.102606 0.102606 -0.000235
v -0.092343 0.092343 -0.027389
v -0.078531 0.078531 -0.051190
v -0.061702 0.061702 -0.070723
v -0.042501 0.042501 -0.085237
v -0.021667 0.021667 -0.094175
v -0.017023 0.025477 0.213915
v -0.033393 0.049976 0.204977
v -0.048479 0.072553 0.190463
v -0.061702 0.092343 0.170930
v -0.072553 0.108584 0.147130
v -0.080617 0.120652 0.119975
v -0.085583 0.128084 0.090512
v -0.087259 0.130593 0.059870
v -0.085583 0.128084 0.029229
v -0.080617 0.120652 -0.000235
v -0.072553 0.108584 -0.027389
v -0.061702 0.092343 -0.051190
v -0.048479 0.072553 -0.070723
v -0.033393 0.049976 -0.085237
v -0.017023 0.025477 -0.094175
v -0.011726 0.028309 0.213915
v -0.023001 0.055530 0.204977
v -0.033393 0.080617 0.190463
v -0.042501 0.102606 0.170930
v -0.049976 0.120652 0.147130
v -0.055530 0.134061 0.119975
v -0.058950 0.142319 0.090512
v -0.060105 0.145107 0.059870
v -0.058950 0.142319 0.029229
v -0.055530 0.134061 -0.000235
v -0.049976 0.120652 -0.027389
v -0.042501 0.102606 -0.051190
v -0.033393 0.080617 -0.070723
v -0.023001 0.055530 -0.085237
v -0.011726 0.028309 -0.094175
v -0.005978 0.030053 0.213915
v -0.011726 0.058950 0.204977
v -0.017023 0.085583 0.190463
v -0.021667 0.108926 0.170930
v -0.025477 0.128083 0.147130
v -0.028309 0.142319 0.119975
v -0.030053 0.151085 0.090512
v -0.030641 0.154045 0.059870
v -0.030053 0.151085 0.029229
v -0.028309 0.142319 -0.000235
v -0.025477 0.128083 -0.027389
v -0.021667 0.108926 -0.051190
v -0.017023 0.085583 -0.070723
v -0.011726 0.058950 -0.085237
v -0.005978 0.030053 -0.094175
v 0.000000 0.030641 0.213915
v 0.000000 0.060105 0.204977
v 0.000000 0.111060 0.170930
v 0.000000 0.145107 0.119975
v 0.000000 0.145107 -0.000235
v 0.000000 0.111060 -0.051190
v 0.000000 0.087259 -0.070723
v 0.000000 0.060105 -0.085237
v 0.000000 0.030641 -0.094175
vn -0.0000 0.5598 0.8286
vn -0.0000 0.8333 0.5528
vn -0.0000 0.9810 0.1939
vn -0.0000 1.0000 -0.0000
vn -0.0000 0.9810 -0.1939
vn -0.0000 0.8333 -0.5528
vn 0.0392 0.1971 0.9796
vn 0.0757 0.3804 0.9217
vn 0.1092 0.5490 0.8286
vn 0.1385 0.6965 0.7041
vn 0.1626 0.8173 0.5528
vn 0.1804 0.9070 0.3805
vn 0.1914 0.9622 0.1939
vn 0.1951 0.9808 -0.0000
vn 0.1914 0.9622 -0.1939
vn 0.1804 0.9070 -0.3805
vn 0.1626 0.8173 -0.5528
vn 0.1385 0.6965 -0.7041
vn 0.1092 0.5490 -0.8286
vn 0.0757 0.3804 -0.9217
vn 0.0392 0.1971 -0.9796
vn 0.0769 0.1857 0.9796
vn 0.1484 0.3584 0.9217
vn 0.2142 0.5172 0.8286
vn 0.2718 0.6561 0.7041
vn 0.3189 0.7699 0.5528
vn 0.3539 0.8544 0.3805
vn 0.3754 0.9063 0.1939
vn 0.3827 0.9239 -0.0000
vn 0.3754 0.9063 -0.1939
vn 0.3539 0.8544 -0.3805
vn 0.3189 0.7699 -0.5528
vn 0.2718 0.6561 -0.7041
vn 0.2142 0.5172 -0.8286
vn 0.1484 0.3584 -0.9217
vn 0.0769 0.1857 -0.9796
vn 0.1117 0.1671 0.9796
vn 0.2155 0.3225 0.9217
vn 0.3110 0.4654 0.8286
vn 0.3945 0.5905 0.7041
vn 0.4630 0.6929 0.5528
vn 0.5138 0.7689 0.3805
vn 0.5450 0.8157 0.1939
vn 0.5556 0.8315 -0.0000
vn 0.5450 0.8157 -0.1939
vn 0.5138 0.7689 -0.3805
vn 0.4630 0.6929 -0.5528
vn 0.3945 0.5905 -0.7041
vn 0.3110 0.4654 -0.8286
vn 0.2155 0.3225 -0.9217
vn 0.1117 0.1671 -0.9796
vn 0.1421 0.1421 0.9796
vn 0.2743 0.2743 0.9217
vn 0.3958 0.3958 0.8286
vn 0.5021 0.5021 0.7041
vn 0.5893 0.5893 0.5528
vn 0.6539 0.6539 0.3805
vn 0.6937 0.6937 0.1939
vn 0.7071 0.7071 -0.0000
vn 0.6937 0.6937 -0.1939
vn 0.6539 0.6539 -0.3805
vn 0.5893 0.5893 -0.5528
vn 0.5021 0.5021 -0.7041
vn 0.3958 0.3958 -0.8286
vn 0.2743 0.2743 -0.9217
vn 0.1421 0.1421 -0.9796
vn 0.1671 0.1117 0.9796
vn 0.3225 0.2155 0.9217
vn 0.4654 0.3110 0.8286
vn 0.5905 0.3945 0.7041
vn 0.6929 0.4630 0.5528
vn 0.7689 0.5138 0.3805
vn 0.8157 0.5450 0.1939
vn 0.8315 0.5556 -0.0000
vn 0.8157 0.5450 -0.1939
vn 0.7689 0.5138 -0.3805
vn 0.6929 0.4630 -0.5528
vn 0.5905 0.3945 -0.7041
vn 0.4654 0.3110 -0.8286
vn 0.3225 0.2155 -0.9217
vn 0.1671 0.1117 -0.9796
vn -0.0000 -0.0000 1.0000
vn 0.1857 0.0769 0.9796
vn 0.3584 0.1484 0.9217
vn 0.5172 0.2142 0.8286
vn 0.6561 0.2718 0.7041
vn 0.7699 0.3189 0.5528
vn 0.8544 0.3539 0.3805
vn 0.9063 0.3754 0.1939
vn 0.9239 0.3827 -0.0000
vn 0.9063 0.3754 -0.1939
vn 0.8544 0.3539 -0.3805
vn 0.7699 0.3189 -0.5528
vn 0.6561 0.2718 -0.7041
vn 0.5172 0.2142 -0.8286
vn 0.3584 0.1484 -0.9217
vn 0.1857 0.0769 -0.9796
vn 0.1971 0.0392 0.9796
vn 0.3804 0.0757 0.9217
vn 0.5490 0.1092 0.8286
vn 0.6965 0.1385 0.7041
vn 0.8173 0.1626 0.5528
vn 0.9070 0.1804 0.3805
vn 0.9622 0.1914 0.1939
vn 0.9808 0.1951 -0.0000
vn 0.9622 0.1914 -0.1939
vn 0.9070 0.1804 -0.3805
vn 0.8173 0.1626 -0.5528
vn 0.6965 0.1385 -0.7041
vn 0.5490 0.1092 -0.8286
vn 0.3804 0.0757 -0.9217
vn 0.1971 0.0392 -0.9796
vn 0.2010 -0.0000 0.9796
vn 0.3879 -0.0000 0.9217
vn 0.5598 -0.0000 0.8286
vn 0.7101 -0.0000 0.7041
vn 0.8333 -0.0000 0.5528
vn 0.9248 -0.0000 0.3805
vn 0.9810 -0.0000 0.1939
vn 1.0000 -0.0000 -0.0000
vn 0.9810 -0.0000 -0.1939
vn 0.9248 -0.0000 -0.3805
vn 0.8333 -0.0000 -0.5528
vn 0.7101 -0.0000 -0.7041
vn 0.5598 -0.0000 -0.8286
vn 0.3879 -0.0000 -0.9217
vn 0.2010 -0.0000 -0.9796
vn 0.1971 -0.0392 0.9796
vn 0.3804 -0.0757 0.9217
vn 0.5490 -0.1092 0.8286
vn 0.6965 -0.1385 0.7041
vn 0.8173 -0.1626 0.5528
vn 0.9070 -0.1804 0.3805
vn 0.9622 -0.1914 0.1939
vn 0.9808 -0.1951 -0.0000
vn 0.9622 -0.1914 -0.1939
vn 0.9070 -0.1804 -0.3805
vn 0.8173 -0.1626 -0.5528
vn 0.6965 -0.1385 -0.7041
vn 0.5490 -0.1092 -0.8286
vn 0.3804 -0.0757 -0.9217
vn 0.1971 -0.0392 -0.9796
vn 0.1857 -0.0769 0.9796
vn 0.3584 -0.1484 0.9217
vn 0.5172 -0.2142 0.8286
vn 0.6561 -0.2718 0.7041
vn 0.7699 -0.3189 0.5528
vn 0.8544 -0.3539 0.3805
vn 0.9063 -0.3754 0.1939
vn 0.9239 -0.3827 -0.0000
vn 0.9063 -0.3754 -0.1939
vn 0.8544 -0.3539 -0.3805
vn 0.7699 -0.3189 -0.5528
vn 0.6561 -0.2718 -0.7041
vn 0.5172 -0.2142 -0.8286
vn 0.3584 -0.1484 -0.9217
vn 0.1857 -0.0769 -0.9796
vn 0.1671 -0.1117 0.9796
vn 0.3225 -0.2155 0.9217
vn 0.4654 -0.3110 0.8286
vn 0.5905 -0.3945 0.7041
vn 0.6929 -0.4630 0.5528
vn 0.7689 -0.5138 0.3805
vn 0.8157 -0.5450 0.1939
vn 0.8315 -0.5556 -0.0000
vn 0.8157 -0.5450 -0.1939
vn 0.7689 -0.5138 -0.3805
vn 0.6929 -0.4630 -0.5528
vn 0.5905 -0.3945 -0.7041
vn 0.4654 -0.3110 -0.8286
vn 0.3225 -0.2155 -0.9217
vn 0.1671 -0.1117 -0.9796
vn 0.1421 -0.1421 0.9796
vn 0.2743 -0.2743 0.9217
vn 0.3958 -0.3958 0.8286
vn 0.5021 -0.5021 0.7041
vn 0.5893 -0.5893 0.5528
vn 0.6539 -0.6539 0.3805
vn 0.6937 -0.6937 0.1939
vn 0.7071 -0.7071 -0.0000
vn 0.6937 -0.6937 -0.1939
vn 0.6539 -0.6539 -0.3805
vn 0.5893 -0.5893 -0.5528
vn 0.5021 -0.5021 -0.7041
vn 0.3958 -0.3958 -0.8286
vn 0.2743 -0.2743 -0.9217
vn 0.1421 -0.1421 -0.9796
vn 0.1117 -0.1671 0.9796
vn 0.2155 -0.3225 0.9217
vn 0.3110 -0.4654 0.8286
vn 0.3945 -0.5905 0.7041
vn 0.4630 -0.6929 0.5528
vn 0.5138 -0.7689 0.3805
vn 0.5450 -0.8157 0.1939
vn 0.5556 -0.8315 -0.0000
vn 0.5450 -0.8157 -0.1939
vn 0.5138 -0.7689 -0.3805
vn 0.4630 -0.6929 -0.5528
vn 0.3945 -0.5905 -0.7041
vn 0.3110 -0.4654 -0.8286
vn 0.2155 -0.3225 -0.9217
vn 0.1117 -0.1671 -0.9796
vn 0.0769 -0.1857 0.9796
vn 0.1484 -0.3584 0.9217
vn 0.2142 -0.5172 0.8286
vn 0.2718 -0.6561 0.7041
vn 0.3189 -0.7699 0.5528
vn 0.3539 -0.8544 0.3805
vn 0.3754 -0.9063 0.1939
vn 0.3827 -0.9239 -0.0000
vn 0.3754 -0.9063 -0.1939
vn 0.3539 -0.8544 -0.3805
vn 0.3189 -0.7699 -0.5528
vn 0.2718 -0.6561 -0.7041
vn 0.2142 -0.5172 -0.8286
vn 0.1484 -0.3584 -0.9217
vn 0.0769 -0.1857 -0.9796
vn 0.0392 -0.1971 0.9796
vn 0.0757 -0.3804 0.9217
vn 0.1092 -0.5490 0.8286
vn 0.1385 -0.6965 0.7041
vn 0.1626 -0.8173 0.5528
vn 0.1804 -0.9070 0.3805
vn 0.1914 -0.9622 0.1939
vn 0.1951 -0.9808 -0.0000
vn 0.1914 -0.9622 -0.1939
vn 0.1804 -0.9070 -0.3805
vn 0.1626 -0.8173 -0.5528
vn 0.1385 -0.6965 -0.7041
vn 0.1092 -0.5490 -0.8286
vn 0.0757 -0.3804 -0.9217
vn 0.0392 -0.1971 -0.9796
vn -0.0000 -0.2010 0.9796
vn -0.0000 -0.3879 0.9217
vn -0.0000 -0.5598 0.8286
vn -0.0000 -0.7101 0.7041
vn -0.0000 -0.8333 0.5528
vn -0.0000 -0.9248 0.3805
vn -0.0000 -0.9810 0.1939
vn -0.0000 -1.0000 -0.0000
vn -0.0000 -0.9810 -0.1939
vn -0.0000 -0.9248 -0.3805
vn -0.0000 -0.8333 -0.5528
vn -0.0000 -0.7101 -0.7041
vn -0.0000 -0.5598 -0.8286
vn -0.0000 -0.3879 -0.9217
vn -0.0000 -0.2010 -0.9796
vn -0.0392 -0.1971 0.9796
vn -0.0757 -0.3804 0.9217
vn -0.1092 -0.5490 0.8286
vn -0.1385 -0.6965 0.7041
vn -0.1626 -0.8173 0.5528
vn -0.1804 -0.9070 0.3805
vn -0.1914 -0.9622 0.1939
vn -0.1951 -0.9808 -0.0000
vn -0.1914 -0.9622 -0.1939
vn -0.1804 -0.9070 -0.3805
vn -0.1626 -0.8173 -0.5528
vn -0.1385 -0.6965 -0.7041
vn -0.1092 -0.5490 -0.8286
vn -0.0757 -0.3804 -0.9217
vn -0.0392 -0.1971 -0.9796
vn -0.0769 -0.1857 0.9796
vn -0.1484 -0.3584 0.9217
vn -0.2142 -0.5172 0.8286
vn -0.2718 -0.6561 0.7041
vn -0.3189 -0.7699 0.5528
vn -0.3539 -0.8544 0.3805
vn -0.3754 -0.9063 0.1939
vn -0.3827 -0.9239 -0.0000
vn -0.3754 -0.9063 -0.1939
vn -0.3539 -0.8544 -0.3805
vn -0.3189 -0.7699 -0.5528
vn -0.2718 -0.6561 -0.7041
vn -0.2142 -0.5172 -0.8286
vn -0.1484 -0.3584 -0.9217
vn -0.0769 -0.1857 -0.9796
vn -0.1117 -0.1671 0.9796
vn -0.2155 -0.3225 0.9217
vn -0.3110 -0.4654 0.8286
vn -0.3945 -0.5905 0.7041
vn -0.4630 -0.6929 0.5528
vn -0.5138 -0.7689 0.3805
vn -0.5450 -0.8157 0.1939
vn -0.5556 -0.8315 -0.0000
vn -0.5450 -0.8157 -0.1939
vn -0.5138 -0.7689 -0.3805
vn -0.4630 -0.6929 -0.5528
vn -0.3945 -0.5905 -0.7041
vn -0.3110 -0.4654 -0.8286
vn -0.2155 -0.3225 -0.9217
vn -0.1117 -0.1671 -0.9796
vn -0.1421 -0.1421 0.9796
vn -0.2743 -0.2743 0.9217
vn -0.3958 -0.3958 0.8286
vn -0.5021 -0.5021 0.7041
vn -0.5893 -0.5893 0.5528
vn -0.6539 -0.6539 0.3805
vn -0.6937 -0.6937 0.1939
vn -0.7071 -0.7071 -0.0000
vn -0.6937 -0.6937 -0.1939
vn -0.6539 -0.6539 -0.3805
vn -0.5893 -0.5893 -0.5528
vn -0.5021 -0.5021 -0.7041
vn -0.3958 -0.3958 -0.8286
vn -0.2743 -0.2743 -0.9217
vn -0.1421 -0.1421 -0.9796
vn -0.0000 -0.0000 -1.0000
vn -0.1671 -0.1117 0.9796
vn -0.3225 -0.2155 0.9217
vn -0.4654 -0.3110 0.8286
vn -0.5905 -0.3945 0.7041
vn -0.6929 -0.4630 0.5528
vn -0.7689 -0.5138 0.3805
vn -0.8157 -0.5450 0.1939
vn -0.8315 -0.5556 -0.0000
vn -0.8157 -0.5450 -0.1939
vn -0.7689 -0.5138 -0.3805
vn -0.6929 -0.4630 -0.5528
vn -0.5905 -0.3945 -0.7041
vn -0.4654 -0.3110 -0.8286
vn -0.3225 -0.2155 -0.9217
vn -0.1671 -0.1117 -0.9796
vn -0.1857 -0.0769 0.9796
vn -0.3584 -0.1484 0.9217
vn -0.5172 -0.2142 0.8286
vn -0.6561 -0.2718 0.7041
vn -0.7699 -0.3189 0.5528
vn -0.8544 -0.3539 0.3805
vn -0.9063 -0.3754 0.1939
vn -0.9239 -0.3827 -0.0000
vn -0.9063 -0.3754 -0.1939
vn -0.8544 -0.3539 -0.3805
vn -0.7699 -0.3189 -0.5528
vn -0.6561 -0.2718 -0.7041
vn -0.5172 -0.2142 -0.8286
vn -0.3584 -0.1484 -0.9217
vn -0.1857 -0.0769 -0.9796
vn -0.1971 -0.0392 0.9796
vn -0.3804 -0.0757 0.9217
vn -0.5490 -0.1092 0.8286
vn -0.6965 -0.1385 0.7041
vn -0.8173 -0.1626 0.5528
vn -0.9070 -0.1804 0.3805
vn -0.9622 -0.1914 0.1939
vn -0.9808 -0.1951 -0.0000
vn -0.9622 -0.1914 -0.1939
vn -0.9070 -0.1804 -0.3805
vn -0.8173 -0.1626 -0.5528
vn -0.6965 -0.1385 -0.7041
vn -0.5490 -0.1092 -0.8286
vn -0.3804 -0.0757 -0.9217
vn -0.1971 -0.0392 -0.9796
vn -0.2010 -0.0000 0.9796
vn -0.3879 -0.0000 0.9217
vn -0.5598 -0.0000 0.8286
vn -0.7101 -0.0000 0.7041
vn -0.8333 -0.0000 0.5528
vn -0.9248 -0.0000 0.3805
vn -0.9810 -0.0000 0.1939
vn -1.0000 -0.0000 -0.0000
vn -0.9810 -0.0000 -0.1939
vn -0.9248 -0.0000 -0.3805
vn -0.8333 -0.0000 -0.5528
vn -0.7101 -0.0000 -0.7041
vn -0.5598 -0.0000 -0.8286
vn -0.3879 -0.0000 -0.9217
vn -0.2010 -0.0000 -0.9796
vn -0.1971 0.0392 0.9796
vn -0.3804 0.0757 0.9217
vn -0.5490 0.1092 0.8286
vn -0.6965 0.1385 0.7041
vn -0.8173 0.1626 0.5528
vn -0.9070 0.1804 0.3805
vn -0.9622 0.1914 0.1939
vn -0.9808 0.1951 -0.0000
vn -0.9622 0.1914 -0.1939
vn -0.9070 0.1804 -0.3805
vn -0.8173 0.1626 -0.5528
vn -0.6965 0.1385 -0.7041
vn -0.5490 0.1092 -0.8286
vn -0.3804 0.0757 -0.9217
vn -0.1971 0.0392 -0.9796
vn -0.1857 0.0769 0.9796
vn -0.3584 0.1484 0.9217
vn -0.5172 0.2142 0.8286
vn -0.6561 0.2718 0.7041
vn -0.7699 0.3189 0.5528
vn -0.8544 0.3539 0.3805
vn -0.9063 0.3754 0.1939
vn -0.9239 0.3827 -0.0000
vn -0.9063 0.3754 -0.1939
vn -0.8544 0.3539 -0.3805
vn -0.7699 0.3189 -0.5528
vn -0.6561 0.2718 -0.7041
vn -0.5172 0.2142 -0.8286
vn -0.3584 0.1484 -0.9217
vn -0.1857 0.0769 -0.9796
vn -0.1671 0.1117 0.9796
vn -0.3225 0.2155 0.9217
vn -0.4654 0.3110 0.8286
vn -0.5905 0.3945 0.7041
vn -0.6929 0.4630 0.5528
vn -0.7689 0.5138 0.3805
vn -0.8157 0.5450 0.1939
vn -0.8315 0.5556 -0.0000
vn -0.8157 0.5450 -0.1939
vn -0.7689 0.5138 -0.3805
vn -0.6929 0.4630 -0.5528
vn -0.5905 0.3945 -0.7041
vn -0.4654 0.3110 -0.8286
vn -0.3225 0.2155 -0.9217
vn -0.1671 0.1117 -0.9796
vn -0.1421 0.1421 0.9796
vn -0.2743 0.2743 0.9217
vn -0.3958 0.3958 0.8286
vn -0.5021 0.5021 0.7041
vn -0.5893 0.5893 0.5528
vn -0.6539 0.6539 0.3805
vn -0.6937 0.6937 0.1939
vn -0.7071 0.7071 -0.0000
vn -0.6937 0.6937 -0.1939
vn -0.6539 0.6539 -0.3805
vn -0.5893 0.5893 -0.5528
vn -0.5021 0.5021 -0.7041
vn -0.3958 0.3958 -0.8286
vn -0.2743 0.2743 -0.9217
vn -0.1421 0.1421 -0.9796
vn -0.1117 0.1671 0.9796
vn -0.2155 0.3225 0.9217
vn -0.3110 0.4654 0.8286
vn -0.3945 0.5905 0.7041
vn -0.4630 0.6929 0.5528
vn -0.5138 0.7689 0.3805
vn -0.5450 0.8157 0.1939
vn -0.5556 0.8315 -0.0000
vn -0.5450 0.8157 -0.1939
vn -0.5138 0.7689 -0.3805
vn -0.4630 0.6929 -0.5528
vn -0.3945 0.5905 -0.7041
vn -0.3110 0.4654 -0.8286
vn -0.2155 0.3225 -0.9217
vn -0.1117 0.1671 -0.9796
vn -0.0769 0.1857 0.9796
vn -0.1484 0.3584 0.9217
vn -0.2142 0.5172 0.8286
vn -0.2718 0.6561 0.7041
vn -0.3189 0.7699 0.5528
vn -0.3539 0.8544 0.3805
vn -0.3754 0.9063 0.1939
vn -0.3827 0.9239 -0.0000
vn -0.3754 0.9063 -0.1939
vn -0.3539 0.8544 -0.3805
vn -0.3189 0.7699 -0.5528
vn -0.2718 0.6561 -0.7041
vn -0.2142 0.5172 -0.8286
vn -0.1484 0.3584 -0.9217
vn -0.0769 0.1857 -0.9796
vn -0.0392 0.1971 0.9796
vn -0.0757 0.3804 0.9217
vn -0.1092 0.5490 0.8286
vn -0.1385 0.6965 0.7041
vn -0.1626 0.8173 0.5528
vn -0.1804 0.9070 0.3805
vn -0.1914 0.9622 0.1939
vn -0.1951 0.9808 -0.0000
vn -0.1914 0.9622 -0.1939
vn -0.1804 0.9070 -0.3805
vn -0.1626 0.8173 -0.5528
vn -0.1385 0.6965 -0.7041
vn -0.1092 0.5490 -0.8286
vn -0.0757 0.3804 -0.9217
vn -0.0392 0.1971 -0.9796
vn -0.0000 0.2010 0.9796
vn -0.0000 0.3879 0.9217
vn -0.0000 0.7101 0.7041
vn -0.0000 0.9248 0.3805
vn -0.0000 0.9248 -0.3805
vn -0.0000 0.7101 -0.7041
vn -0.0000 0.5598 -0.8286
vn -0.0000 0.3879 -0.9217
vn -0.0000 0.2010 -0.9796
vt 0.968512 0.015984
vt 0.964635 0.008232
vt 0.968512 0.008232
vt 0.968512 0.070253
vt 0.964635 0.062500
vt 0.968512 0.062500
vt 0.968512 0.116768
vt 0.966574 0.124521
vt 0.964635 0.116768
vt 0.966574 0.000479
vt 0.964635 0.054747
vt 0.968512 0.054747
vt 0.968512 0.109016
vt 0.964635 0.109016
vt 0.964635 0.046995
vt 0.968512 0.046995
vt 0.968512 0.101263
vt 0.964635 0.101263
vt 0.964635 0.039242
vt 0.968512 0.039242
vt 0.968512 0.093510
vt 0.964635 0.093510
vt 0.964635 0.031490
vt 0.968512 0.031490
vt 0.968512 0.085758
vt 0.964635 0.085758
vt 0.964635 0.023737
vt 0.968512 0.023737
vt 0.968512 0.078005
vt 0.964635 0.078005
vt 0.964635 0.015984
vt 0.964635 0.070253
vt 0.960759 0.023737
vt 0.960759 0.015984
vt 0.960759 0.078005
vt 0.960759 0.070253
vt 0.960759 0.008232
vt 0.960759 0.062500
vt 0.962697 0.124521
vt 0.960759 0.116768
vt 0.962697 0.000479
vt 0.960759 0.054747
vt 0.960759 0.109016
vt 0.960759 0.046995
vt 0.960759 0.101263
vt 0.960759 0.039242
vt 0.960759 0.093510
vt 0.960759 0.031490
vt 0.960759 0.085758
vt 0.956883 0.101263
vt 0.956883 0.046995
vt 0.956883 0.039242
vt 0.956883 0.093510
vt 0.956883 0.031490
vt 0.956883 0.085758
vt 0.956883 0.023737
vt 0.956883 0.078005
vt 0.956883 0.015984
vt 0.956883 0.070253
vt 0.956883 0.008232
vt 0.956883 0.062500
vt 0.958821 0.124521
vt 0.956883 0.116768
vt 0.958821 0.000479
vt 0.956883 0.054747
vt 0.956883 0.109016
vt 0.953007 0.078005
vt 0.953007 0.070253
vt 0.953007 0.008232
vt 0.953007 0.062500
vt 0.954945 0.124521
vt 0.953007 0.116768
vt 0.954945 0.000479
vt 0.953007 0.054747
vt 0.953007 0.109016
vt 0.953007 0.046995
vt 0.953007 0.101263
vt 0.953007 0.039242
vt 0.953007 0.093510
vt 0.953007 0.031490
vt 0.953007 0.085758
vt 0.953007 0.023737
vt 0.953007 0.015984
vt 0.949130 0.046995
vt 0.949130 0.039242
vt 0.949130 0.093510
vt 0.949130 0.031490
vt 0.949130 0.085758
vt 0.949130 0.023737
vt 0.949130 0.078005
vt 0.949130 0.015984
vt 0.949130 0.070253
vt 0.949130 0.008232
vt 0.949130 0.062500
vt 0.951068 0.124521
vt 0.949130 0.116768
vt 0.951068 0.000479
vt 0.949130 0.054747
vt 0.949130 0.109016
vt 0.949130 0.101263
vt 0.945254 0.015984
vt 0.945254 0.008232
vt 0.945254 0.070253
vt 0.945254 0.062500
vt 0.947192 0.124521
vt 0.945254 0.116768
vt 0.947192 0.000479
vt 0.945254 0.054747
vt 0.945254 0.109016
vt 0.945254 0.046995
vt 0.945254 0.101263
vt 0.945254 0.039242
vt 0.945254 0.093510
vt 0.945254 0.031490
vt 0.945254 0.085758
vt 0.945254 0.023737
vt 0.945254 0.078005
vt 0.941378 0.093510
vt 0.941378 0.031490
vt 0.941378 0.085758
vt 0.941378 0.023737
vt 0.941378 0.078005
vt 0.941378 0.015984
vt 0.941378 0.070253
vt 0.941378 0.008232
vt 0.941378 0.062500
vt 0.943316 0.124521
vt 0.941378 0.116768
vt 0.943316 0.000479
vt 0.941378 0.054747
vt 0.941378 0.109016
vt 0.941378 0.046995
vt 0.941378 0.101263
vt 0.941378 0.039242
vt 0.937501 0.070253
vt 0.937501 0.062500
vt 0.939440 0.124521
vt 0.937501 0.116768
vt 0.939440 0.000479
vt 0.937501 0.008232
vt 0.937501 0.054747
vt 0.937501 0.109016
vt 0.937501 0.046995
vt 0.937501 0.101263
vt 0.937501 0.039242
vt 0.937501 0.093510
vt 0.937501 0.031490
vt 0.937501 0.085758
vt 0.937501 0.023737
vt 0.937501 0.078005
vt 0.937501 0.015984
vt 0.933625 0.031490
vt 0.933625 0.093510
vt 0.933625 0.085758
vt 0.933625 0.023737
vt 0.933625 0.078005
vt 0.933625 0.015984
vt 0.933625 0.070253
vt 0.933625 0.008232
vt 0.933625 0.062500
vt 0.935563 0.124521
vt 0.933625 0.116768
vt 0.935563 0.000479
vt 0.933625 0.054747
vt 0.933625 0.109016
vt 0.933625 0.046995
vt 0.933625 0.101263
vt 0.933625 0.039242
vt 0.931687 0.000479
vt 0.929749 0.008232
vt 0.929749 0.054747
vt 0.929749 0.109016
vt 0.929749 0.046995
vt 0.929749 0.101263
vt 0.929749 0.039242
vt 0.929749 0.093510
vt 0.929749 0.031490
vt 0.929749 0.085758
vt 0.929749 0.023737
vt 0.929749 0.078005
vt 0.929749 0.015984
vt 0.929749 0.070253
vt 0.929749 0.062500
vt 0.931687 0.124521
vt 0.929749 0.116768
vt 0.925872 0.031490
vt 0.925872 0.023737
vt 0.925872 0.078005
vt 0.925872 0.015984
vt 0.925872 0.070253
vt 0.925872 0.008232
vt 0.925872 0.062500
vt 0.927811 0.124521
vt 0.925872 0.116768
vt 0.927811 0.000479
vt 0.925872 0.054747
vt 0.925872 0.109016
vt 0.925872 0.046995
vt 0.925872 0.101263
vt 0.925872 0.039242
vt 0.925872 0.093510
vt 0.925872 0.085758
vt 0.921996 0.109016
vt 0.921996 0.046995
vt 0.921996 0.101263
vt 0.921996 0.039242
vt 0.921996 0.093510
vt 0.921996 0.031490
vt 0.921996 0.085758
vt 0.921996 0.023737
vt 0.921996 0.078005
vt 0.921996 0.015984
vt 0.921996 0.070253
vt 0.921996 0.008232
vt 0.921996 0.062500
vt 0.923934 0.124521
vt 0.921996 0.116768
vt 0.923934 0.000479
vt 0.921996 0.054747
vt 0.918120 0.078005
vt 0.918120 0.015984
vt 0.918120 0.070253
vt 0.918120 0.008232
vt 0.918120 0.062500
vt 0.920058 0.124521
vt 0.918120 0.116768
vt 0.920058 0.000479
vt 0.918120 0.054747
vt 0.918120 0.109016
vt 0.918120 0.046995
vt 0.918120 0.101263
vt 0.918120 0.039242
vt 0.918120 0.093510
vt 0.918120 0.031490
vt 0.918120 0.085758
vt 0.918120 0.023737
vt 0.914243 0.046995
vt 0.914243 0.101263
vt 0.914243 0.039242
vt 0.914243 0.093510
vt 0.914243 0.031490
vt 0.914243 0.085758
vt 0.914243 0.023737
vt 0.914243 0.078005
vt 0.914243 0.015984
vt 0.914243 0.070253
vt 0.914243 0.008232
vt 0.914243 0.062500
vt 0.916182 0.124521
vt 0.914243 0.116768
vt 0.916182 0.000479
vt 0.914243 0.054747
vt 0.914243 0.109016
vt 0.910367 0.015984
vt 0.910367 0.078005
vt 0.910367 0.070253
vt 0.910367 0.008232
vt 0.910367 0.062500
vt 0.912305 0.124521
vt 0.910367 0.116768
vt 0.912305 0.000479
vt 0.910367 0.054747
vt 0.910367 0.109016
vt 0.910367 0.046995
vt 0.910367 0.101263
vt 0.910367 0.039242
vt 0.910367 0.093510
vt 0.910367 0.031490
vt 0.910367 0.085758
vt 0.910367 0.023737
vt 0.906491 0.109016
vt 0.906491 0.101263
vt 0.906491 0.046995
vt 0.906491 0.039242
vt 0.906491 0.093510
vt 0.906491 0.031490
vt 0.906491 0.085758
vt 0.906491 0.023737
vt 0.906491 0.078005
vt 0.906491 0.015984
vt 0.906491 0.070253
vt 0.906491 0.008232
vt 0.906491 0.062500
vt 0.908429 0.124521
vt 0.906491 0.116768
vt 0.908429 0.000479
vt 0.906491 0.054747
vt 0.902615 0.078005
vt 0.902615 0.070253
vt 0.902615 0.008232
vt 0.902615 0.062500
vt 0.904553 0.124521
vt 0.902615 0.116768
vt 0.904553 0.000479
vt 0.902615 0.054747
vt 0.902615 0.109016
vt 0.902615 0.046995
vt 0.902615 0.101263
vt 0.902615 0.039242
vt 0.902615 0.093510
vt 0.902615 0.031490
vt 0.902615 0.085758
vt 0.902615 0.023737
vt 0.902615 0.015984
vt 0.898738 0.046995
vt 0.898738 0.039242
vt 0.898738 0.093510
vt 0.898738 0.031490
vt 0.898738 0.085758
vt 0.898738 0.023737
vt 0.898738 0.078005
vt 0.898738 0.015984
vt 0.898738 0.070253
vt 0.898738 0.008232
vt 0.898738 0.062500
vt 0.900676 0.124521
vt 0.898738 0.116768
vt 0.900676 0.000479
vt 0.898738 0.054747
vt 0.898738 0.109016
vt 0.898738 0.101263
vt 0.894862 0.015984
vt 0.894862 0.008232
vt 0.894862 0.070253
vt 0.894862 0.062500
vt 0.896800 0.124521
vt 0.894862 0.116768
vt 0.896800 0.000479
vt 0.894862 0.054747
vt 0.894862 0.109016
vt 0.894862 0.046995
vt 0.894862 0.101263
vt 0.894862 0.039242
vt 0.894862 0.093510
vt 0.894862 0.031490
vt 0.894862 0.085758
vt 0.894862 0.023737
vt 0.894862 0.078005
vt 0.890986 0.031490
vt 0.890986 0.093510
vt 0.890986 0.085758
vt 0.890986 0.023737
vt 0.890986 0.078005
vt 0.890986 0.015984
vt 0.890986 0.070253
vt 0.890986 0.008232
vt 0.890986 0.062500
vt 0.892924 0.124521
vt 0.890986 0.116768
vt 0.892924 0.000479
vt 0.890986 0.054747
vt 0.890986 0.109016
vt 0.890986 0.046995
vt 0.890986 0.101263
vt 0.890986 0.039242
vt 0.889048 0.124521
vt 0.887109 0.116768
vt 0.889048 0.000479
vt 0.887109 0.008232
vt 0.887109 0.054747
vt 0.887109 0.109016
vt 0.887109 0.046995
vt 0.887109 0.101263
vt 0.887109 0.039242
vt 0.887109 0.093510
vt 0.887109 0.031490
vt 0.887109 0.085758
vt 0.887109 0.023737
vt 0.887109 0.078005
vt 0.887109 0.015984
vt 0.887109 0.070253
vt 0.887109 0.062500
vt 0.883233 0.085758
vt 0.883233 0.031490
vt 0.883233 0.023737
vt 0.883233 0.078005
vt 0.883233 0.015984
vt 0.883233 0.070253
vt 0.883233 0.008232
vt 0.883233 0.062500
vt 0.885171 0.124521
vt 0.883233 0.116768
vt 0.885171 0.000479
vt 0.883233 0.054747
vt 0.883233 0.109016
vt 0.883233 0.046995
vt 0.883233 0.101263
vt 0.883233 0.039242
vt 0.883233 0.093510
vt 0.879357 0.054747
vt 0.879357 0.109016
vt 0.879357 0.046995
vt 0.879357 0.101263
vt 0.879357 0.039242
vt 0.879357 0.093510
vt 0.879357 0.031490
vt 0.879357 0.085758
vt 0.879357 0.023737
vt 0.879357 0.078005
vt 0.879357 0.015984
vt 0.879357 0.070253
vt 0.879357 0.008232
vt 0.879357 0.062500
vt 0.881295 0.124521
vt 0.879357 0.116768
vt 0.881295 0.000479
vt 0.875480 0.031490
vt 0.875480 0.023737
vt 0.875480 0.078005
vt 0.875480 0.015984
vt 0.875480 0.070253
vt 0.875480 0.008232
vt 0.875480 0.062500
vt 0.877419 0.124521
vt 0.875480 0.116768
vt 0.877419 0.000479
vt 0.875480 0.054747
vt 0.875480 0.109016
vt 0.875480 0.046995
vt 0.875480 0.101263
vt 0.875480 0.039242
vt 0.875480 0.093510
vt 0.875480 0.085758
vt 0.999522 0.116768
vt 0.995646 0.109016
vt 0.999522 0.109016
vt 0.999522 0.054747
vt 0.995646 0.046995
vt 0.999522 0.046995
vt 0.999522 0.101263
vt 0.995646 0.101263
vt 0.999522 0.039242
vt 0.995646 0.039242
vt 0.995646 0.093510
vt 0.999522 0.093510
vt 0.995646 0.031490
vt 0.999522 0.031490
vt 0.999522 0.085758
vt 0.995646 0.085758
vt 0.999522 0.023737
vt 0.995646 0.023737
vt 0.995646 0.078005
vt 0.999522 0.078005
vt 0.995646 0.015984
vt 0.999522 0.015984
vt 0.999522 0.070253
vt 0.995646 0.070253
vt 0.995646 0.008232
vt 0.999522 0.008232
vt 0.999522 0.062500
vt 0.995646 0.062500
vt 0.997584 0.124521
vt 0.995646 0.116768
vt 0.997584 0.000479
vt 0.995646 0.054747
vt 0.991770 0.078005
vt 0.991770 0.015984
vt 0.991770 0.070253
vt 0.991770 0.008232
vt 0.991770 0.062500
vt 0.993708 0.124521
vt 0.991770 0.116768
vt 0.993708 0.000479
vt 0.991770 0.054747
vt 0.991770 0.109016
vt 0.991770 0.046995
vt 0.991770 0.101263
vt 0.991770 0.039242
vt 0.991770 0.093510
vt 0.991770 0.031490
vt 0.991770 0.085758
vt 0.991770 0.023737
vt 0.987893 0.046995
vt 0.987893 0.101263
vt 0.987893 0.039242
vt 0.987893 0.093510
vt 0.987893 0.031490
vt 0.987893 0.085758
vt 0.987893 0.023737
vt 0.987893 0.078005
vt 0.987893 0.015984
vt 0.987893 0.070253
vt 0.987893 0.008232
vt 0.987893 0.062500
vt 0.989832 0.124521
vt 0.987893 0.116768
vt 0.989832 0.000479
vt 0.987893 0.054747
vt 0.987893 0.109016
vt 0.984017 0.015984
vt 0.984017 0.078005
vt 0.984017 0.070253
vt 0.984017 0.008232
vt 0.984017 0.062500
vt 0.985955 0.124521
vt 0.984017 0.116768
vt 0.985955 0.000479
vt 0.984017 0.054747
vt 0.984017 0.109016
vt 0.984017 0.046995
vt 0.984017 0.101263
vt 0.984017 0.039242
vt 0.984017 0.093510
vt 0.984017 0.031490
vt 0.984017 0.085758
vt 0.984017 0.023737
vt 0.980141 0.046995
vt 0.980141 0.039242
vt 0.980141 0.093510
vt 0.980141 0.031490
vt 0.980141 0.085758
vt 0.980141 0.023737
vt 0.980141 0.078005
vt 0.980141 0.015984
vt 0.980141 0.070253
vt 0.980141 0.008232
vt 0.980141 0.062500
vt 0.982079 0.124521
vt 0.980141 0.116768
vt 0.982079 0.000479
vt 0.980141 0.054747
vt 0.980141 0.109016
vt 0.980141 0.101263
vt 0.976264 0.008232
vt 0.976264 0.070253
vt 0.976264 0.062500
vt 0.978203 0.124521
vt 0.976264 0.116768
vt 0.978203 0.000479
vt 0.976264 0.054747
vt 0.976264 0.109016
vt 0.976264 0.046995
vt 0.976264 0.101263
vt 0.976264 0.039242
vt 0.976264 0.093510
vt 0.976264 0.031490
vt 0.976264 0.085758
vt 0.976264 0.023737
vt 0.976264 0.078005
vt 0.976264 0.015984
vt 0.972388 0.093510
vt 0.972388 0.031490
vt 0.972388 0.085758
vt 0.972388 0.023737
vt 0.972388 0.078005
vt 0.972388 0.015984
vt 0.972388 0.070253
vt 0.972388 0.008232
vt 0.972388 0.062500
vt 0.974326 0.124521
vt 0.972388 0.116768
vt 0.974326 0.000479
vt 0.972388 0.054747
vt 0.972388 0.109016
vt 0.972388 0.046995
vt 0.972388 0.101263
vt 0.972388 0.039242
vt 0.970450 0.124521
vt 0.970450 0.000479
s 1
f 547/99/547 87/100/87 548/101/548
f 69/102/69 80/103/80 70/104/70
f 540/105/540 148/106/148 73/107/73
f 374/108/374 548/101/548 87/100/87
f 70/104/70 81/109/81 71/110/71
f 541/111/541 73/107/73 74/112/74
f 71/110/71 82/113/82 544/114/544
f 67/115/67 74/112/74 75/116/75
f 544/114/544 83/117/83 72/118/72
f 542/119/542 75/116/75 76/120/76
f 72/118/72 84/121/84 545/122/545
f 68/123/68 76/120/76 77/124/77
f 545/122/545 85/125/85 546/126/546
f 543/127/543 77/124/77 78/128/78
f 546/126/546 86/129/86 547/99/547
f 69/102/69 78/128/78 79/130/79
f 86/129/86 100/131/100 101/132/101
f 79/130/79 93/133/93 94/134/94
f 86/129/86 102/135/102 87/100/87
f 79/130/79 95/136/95 80/103/80
f 73/107/73 148/137/148 88/138/88
f 374/139/374 87/100/87 102/135/102
f 80/103/80 96/140/96 81/109/81
f 73/107/73 89/141/89 74/112/74
f 81/109/81 97/142/97 82/113/82
f 74/112/74 90/143/90 75/116/75
f 82/113/82 98/144/98 83/117/83
f 75/116/75 91/145/91 76/120/76
f 83/117/83 99/146/99 84/121/84
f 76/120/76 92/147/92 77/124/77
f 85/125/85 99/146/99 100/131/100
f 77/124/77 93/133/93 78/128/78
f 89/141/89 105/148/105 90/143/90
f 98/144/98 112/149/112 113/150/113
f 90/143/90 106/151/106 91/145/91
f 99/146/99 113/150/113 114/152/114
f 91/145/91 107/153/107 92/147/92
f 100/131/100 114/152/114 115/154/115
f 92/147/92 108/155/108 93/133/93
f 100/131/100 116/156/116 101/132/101
f 93/133/93 109/157/109 94/134/94
f 101/132/101 117/158/117 102/135/102
f 94/134/94 110/159/110 95/136/95
f 88/138/88 148/160/148 103/161/103
f 374/162/374 102/135/102 117/158/117
f 96/140/96 110/159/110 111/163/111
f 88/138/88 104/164/104 89/141/89
f 96/140/96 112/149/112 97/142/97
f 109/157/109 123/165/123 124/166/124
f 116/156/116 132/167/132 117/158/117
f 110/159/110 124/166/124 125/168/125
f 103/161/103 148/169/148 118/170/118
f 374/171/374 117/158/117 132/167/132
f 110/159/110 126/172/126 111/163/111
f 103/161/103 119/173/119 104/164/104
f 111/163/111 127/174/127 112/149/112
f 104/164/104 120/175/120 105/148/105
f 113/150/113 127/174/127 128/176/128
f 105/148/105 121/177/121 106/151/106
f 113/150/113 129/178/129 114/152/114
f 106/151/106 122/179/122 107/153/107
f 114/152/114 130/180/130 115/154/115
f 107/153/107 123/165/123 108/155/108
f 115/154/115 131/181/131 116/156/116
f 128/176/128 142/182/142 143/183/143
f 120/175/120 136/184/136 121/177/121
f 128/176/128 144/185/144 129/178/129
f 122/179/122 136/184/136 137/186/137
f 129/178/129 145/187/145 130/180/130
f 122/179/122 138/188/138 123/165/123
f 131/181/131 145/187/145 146/189/146
f 124/166/124 138/188/138 139/190/139
f 131/181/131 147/191/147 132/167/132
f 125/168/125 139/190/139 140/192/140
f 118/170/118 148/193/148 133/194/133
f 374/195/374 132/167/132 147/191/147
f 125/168/125 141/196/141 126/172/126
f 118/170/118 134/197/134 119/173/119
f 126/172/126 142/182/142 127/174/127
f 119/173/119 135/198/135 120/175/120
f 147/191/147 162/199/162 163/200/163
f 140/192/140 155/201/155 156/202/156
f 133/194/133 148/203/148 149/204/149
f 374/205/374 147/191/147 163/200/163
f 140/192/140 157/206/157 141/196/141
f 133/194/133 150/207/150 134/197/134
f 141/196/141 158/208/158 142/182/142
f 134/197/134 151/209/151 135/198/135
f 143/183/143 158/208/158 159/210/159
f 135/198/135 152/211/152 136/184/136
f 143/183/143 160/212/160 144/185/144
f 137/186/137 152/211/152 153/213/153
f 144/185/144 161/214/161 145/187/145
f 137/186/137 154/215/154 138/188/138
f 145/187/145 162/199/162 146/189/146
f 139/190/139 154/215/154 155/201/155
f 151/209/151 167/216/167 152/211/152
f 159/210/159 175/217/175 160/212/160
f 153/213/153 167/216/167 168/218/168
f 161/214/161 175/217/175 176/219/176
f 153/213/153 169/220/169 154/215/154
f 162/199/162 176/219/176 177/221/177
f 155/201/155 169/220/169 170/222/170
f 162/199/162 178/223/178 163/200/163
f 156/202/156 170/222/170 171/224/171
f 149/204/149 148/225/148 164/226/164
f 374/227/374 163/200/163 178/223/178
f 156/202/156 172/228/172 157/206/157
f 150/207/150 164/226/164 165/229/165
f 157/206/157 173/230/173 158/208/158
f 150/207/150 166/231/166 151/209/151
f 159/210/159 173/230/173 174/232/174
f 171/224/171 185/233/185 186/234/186
f 164/226/164 148/235/148 179/236/179
f 374/237/374 178/223/178 193/238/193
f 171/224/171 187/239/187 172/228/172
f 165/229/165 179/236/179 180/240/180
f 172/228/172 188/241/188 173/230/173
f 165/229/165 181/242/181 166/231/166
f 174/232/174 188/241/188 189/243/189
f 166/231/166 182/244/182 167/216/167
f 174/232/174 190/245/190 175/217/175
f 168/218/168 182/244/182 183/246/183
f 176/219/176 190/245/190 191/247/191
f 168/218/168 184/248/184 169/220/169
f 176/219/176 192/249/192 177/221/177
f 170/222/170 184/248/184 185/233/185
f 177/221/177 193/238/193 178/223/178
f 189/243/189 205/250/205 190/245/190
f 183/246/183 197/251/197 198/252/198
f 191/247/191 205/250/205 206/253/206
f 183/246/183 199/254/199 184/248/184
f 191/247/191 207/255/207 192/249/192
f 185/233/185 199/254/199 200/256/200
f 192/249/192 208/257/208 193/238/193
f 186/234/186 200/256/200 201/258/201
f 179/236/179 148/259/148 194/260/194
f 374/261/374 193/238/193 208/257/208
f 186/234/186 202/262/202 187/239/187
f 179/236/179 195/263/195 180/240/180
f 187/239/187 203/264/203 188/241/188
f 180/240/180 196/265/196 181/242/181
f 189/243/189 203/264/203 204/266/204
f 181/242/181 197/251/197 182/244/182
f 374/267/374 208/257/208 223/268/223
f 201/258/201 217/269/217 202/262/202
f 194/260/194 210/270/210 195/263/195
f 202/262/202 218/271/218 203/264/203
f 196/265/196 210/270/210 211/272/211
f 204/266/204 218/271/218 219/273/219
f 196/265/196 212/274/212 197/251/197
f 204/266/204 220/275/220 205/250/205
f 198/252/198 212/274/212 213/276/213
f 206/253/206 220/275/220 221/277/221
f 198/252/198 214/278/214 199/254/199
f 206/253/206 222/279/222 207/255/207
f 200/256/200 214/278/214 215/280/215
f 208/257/208 222/279/222 223/268/223
f 201/258/201 215/280/215 216/281/216
f 194/260/194 148/282/148 209/283/209
f 221/277/221 235/284/235 236/285/236
f 213/276/213 229/286/229 214/278/214
f 221/277/221 237/287/237 222/279/222
f 215/280/215 229/286/229 230/288/230
f 222/279/222 238/289/238 223/268/223
f 216/281/216 230/288/230 231/290/231
f 209/283/209 148/291/148 224/292/224
f 374/293/374 223/268/223 238/289/238
f 216/281/216 232/294/232 217/269/217
f 209/283/209 225/295/225 210/270/210
f 217/269/217 233/296/233 218/271/218
f 211/272/211 225/295/225 226/297/226
f 219/273/219 233/296/233 234/298/234
f 211/272/211 227/299/227 212/274/212
f 219/273/219 235/284/235 220/275/220
f 213/276/213 227/299/227 228/300/228
f 224/292/224 240/301/240 225/295/225
f 232/294/232 248/302/248 233/296/233
f 225/295/225 241/303/241 226/297/226
f 234/298/234 248/302/248 249/304/249
f 226/297/226 242/305/242 227/299/227
f 234/298/234 250/306/250 235/284/235
f 228/300/228 242/305/242 243/307/243
f 235/284/235 251/308/251 236/285/236
f 228/300/228 244/309/244 229/286/229
f 237/287/237 251/308/251 252/310/252
f 230/288/230 244/309/244 245/311/245
f 238/289/238 252/310/252 253/312/253
f 231/290/231 245/311/245 246/313/246
f 224/292/224 148/314/148 239/315/239
f 374/316/374 238/289/238 253/312/253
f 231/290/231 247/317/247 232/294/232
f 243/307/243 259/318/259 244/309/244
f 251/308/251 267/319/267 252/310/252
f 245/311/245 259/318/259 260/320/260
f 252/310/252 268/321/268 253/312/253
f 246/313/246 260/320/260 261/322/261
f 239/315/239 148/323/148 254/324/254
f 374/325/374 253/312/253 268/321/268
f 246/313/246 262/326/262 247/317/247
f 240/301/240 254/324/254 255/327/255
f 247/317/247 263/328/263 248/302/248
f 241/303/241 255/327/255 256/329/256
f 249/304/249 263/328/263 264/330/264
f 241/303/241 257/331/257 242/305/242
f 249/304/249 265/332/265 250/306/250
f 243/307/243 257/331/257 258/333/258
f 251/308/251 265/332/265 266/334/266
f 262/326/262 278/335/278 263/328/263
f 255/327/255 271/336/271 256/329/256
f 264/330/264 278/335/278 279/337/279
f 256/329/256 272/338/272 257/331/257
f 264/330/264 280/339/280 265/332/265
f 258/333/258 272/338/272 273/340/273
f 266/334/266 280/339/280 281/341/281
f 258/333/258 274/342/274 259/318/259
f 266/334/266 282/343/282 267/319/267
f 260/320/260 274/342/274 275/344/275
f 267/319/267 283/345/283 268/321/268
f 261/322/261 275/344/275 276/346/276
f 254/324/254 148/347/148 269/348/269
f 374/349/374 268/321/268 283/345/283
f 261/322/261 277/350/277 262/326/262
f 254/324/254 270/351/270 255/327/255
f 281/341/281 297/352/297 282/343/282
f 275/344/275 289/353/289 290/354/290
f 282/343/282 298/355/298 283/345/283
f 276/346/276 290/354/290 291/356/291
f 269/348/269 148/357/148 284/358/284
f 374/359/374 283/345/283 298/355/298
f 276/346/276 292/360/292 277/350/277
f 269/348/269 285/361/285 270/351/270
f 277/350/277 293/362/293 278/335/278
f 270/351/270 286/363/286 271/336/271
f 279/337/279 293/362/293 294/364/294
f 271/336/271 287/365/287 272/338/272
f 279/337/279 295/366/295 280/339/280
f 273/340/273 287/365/287 288/367/288
f 281/341/281 295/366/295 296/368/296
f 273/340/273 289/353/289 274/342/274
f 286/363/286 300/369/300 301/370/301
f 294/364/294 308/371/308 309/372/309
f 286/363/286 302/373/302 287/365/287
f 294/364/294 310/374/310 295/366/295
f 288/367/288 302/373/302 303/375/303
f 296/368/296 310/374/310 311/376/311
f 288/367/288 304/377/304 289/353/289
f 296/368/296 312/378/312 297/352/297
f 290/354/290 304/377/304 305/379/305
f 298/355/298 312/378/312 313/380/313
f 291/356/291 305/379/305 306/381/306
f 284/358/284 148/382/148 299/383/299
f 374/384/374 298/355/298 313/380/313
f 291/356/291 307/385/307 292/360/292
f 284/358/284 300/369/300 285/361/285
f 292/360/292 308/371/308 293/362/293
f 305/379/305 319/386/319 320/387/320
f 312/378/312 328/388/328 313/380/313
f 306/381/306 320/387/320 321/389/321
f 299/383/299 148/390/148 314/391/314
f 374/392/374 313/380/313 328/388/328
f 306/381/306 322/393/322 307/385/307
f 299/383/299 315/394/315 300/369/300
f 307/385/307 323/395/323 308/371/308
f 300/369/300 316/396/316 301/370/301
f 309/372/309 323/395/323 324/397/324
f 301/370/301 317/398/317 302/373/302
f 309/372/309 325/399/325 310/374/310
f 303/375/303 317/398/317 318/400/318
f 311/376/311 325/399/325 326/401/326
f 303/375/303 319/386/319 304/377/304
f 311/376/311 327/402/327 312/378/312
f 324/397/324 338/403/338 339/404/339
f 316/396/316 332/405/332 317/398/317
f 324/397/324 340/406/340 325/399/325
f 318/400/318 332/405/332 333/407/333
f 326/401/326 340/406/340 341/408/341
f 318/400/318 334/409/334 319/386/319
f 326/401/326 342/410/342 327/402/327
f 320/387/320 334/409/334 335/411/335
f 327/402/327 343/412/343 328/388/328
f 321/389/321 335/411/335 336/413/336
f 314/391/314 148/414/148 329/415/329
f 374/416/374 328/388/328 343/412/343
f 321/389/321 337/417/337 322/393/322
f 315/394/315 329/415/329 330/418/330
f 322/393/322 338/403/338 323/395/323
f 315/394/315 331/419/331 316/396/316
f 343/412/343 357/420/357 358/421/358
f 336/413/336 350/422/350 351/423/351
f 329/415/329 148/424/148 344/425/344
f 374/426/374 343/412/343 358/421/358
f 336/413/336 352/427/352 337/417/337
f 330/418/330 344/425/344 345/428/345
f 337/417/337 353/429/353 338/403/338
f 330/418/330 346/430/346 331/419/331
f 339/404/339 353/429/353 354/431/354
f 331/419/331 347/432/347 332/405/332
f 339/404/339 355/433/355 340/406/340
f 333/407/333 347/432/347 348/434/348
f 341/408/341 355/433/355 356/435/356
f 333/407/333 349/436/349 334/409/334
f 341/408/341 357/420/357 342/410/342
f 335/411/335 349/436/349 350/422/350
f 354/431/354 370/437/370 355/433/355
f 348/434/348 362/438/362 363/439/363
f 356/435/356 370/437/370 371/440/371
f 348/434/348 364/441/364 349/436/349
f 356/435/356 372/442/372 357/420/357
f 350/422/350 364/441/364 365/443/365
f 358/421/358 372/442/372 373/444/373
f 351/423/351 365/443/365 366/445/366
f 344/425/344 148/446/148 359/447/359
f 374/448/374 358/421/358 373/444/373
f 351/423/351 367/449/367 352/427/352
f 344/425/344 360/450/360 345/428/345
f 352/427/352 368/451/368 353/429/353
f 345/428/345 361/452/361 346/430/346
f 354/431/354 368/451/368 369/453/369
f 346/430/346 362/438/362 347/432/347
f 359/447/359 148/454/148 375/455/375
f 374/456/374 373/444/373 389/457/389
f 366/445/366 383/458/383 367/449/367
f 359/447/359 376/459/376 360/450/360
f 367/449/367 384/460/384 368/451/368
f 360/450/360 377/461/377 361/452/361
f 369/453/369 384/460/384 385/462/385
f 361/452/361 378/463/378 362/438/362
f 369/453/369 386/464/386 370/437/370
f 363/439/363 378/463/378 379/465/379
f 371/440/371 386/464/386 387/466/387
f 363/439/363 380/467/380 364/441/364
f 371/440/371 388/468/388 372/442/372
f 365/443/365 380/467/380 381/469/381
f 372/442/372 389/457/389 373/444/373
f 366/445/366 381/469/381 382/470/382
f 378/463/378 394/471/394 379/465/379
f 387/466/387 401/472/401 402/473/402
f 379/465/379 395/474/395 380/467/380
f 387/466/387 403/475/403 388/468/388
f 381/469/381 395/474/395 396/476/396
f 388/468/388 404/477/404 389/457/389
f 382/470/382 396/476/396 397/478/397
f 375/455/375 148/479/148 390/480/390
f 374/481/374 389/457/389 404/477/404
f 382/470/382 398/482/398 383/458/383
f 375/455/375 391/483/391 376/459/376
f 383/458/383 399/484/399 384/460/384
f 376/459/376 392/485/392 377/461/377
f 385/462/385 399/484/399 400/486/400
f 377/461/377 393/487/393 378/463/378
f 385/462/385 401/472/401 386/464/386
f 397/478/397 413/488/413 398/482/398
f 390/480/390 406/489/406 391/483/391
f 398/482/398 414/490/414 399/484/399
f 391/483/391 407/491/407 392/485/392
f 400/486/400 414/490/414 415/492/415
f 392/485/392 408/493/408 393/487/393
f 400/486/400 416/494/416 401/472/401
f 394/471/394 408/493/408 409/495/409
f 402/473/402 416/494/416 417/496/417
f 394/471/394 410/497/410 395/474/395
f 402/473/402 418/498/418 403/475/403
f 396/476/396 410/497/410 411/499/411
f 403/475/403 419/500/419 404/477/404
f 397/478/397 411/499/411 412/501/412
f 390/480/390 148/502/148 405/503/405
f 374/504/374 404/477/404 419/500/419
f 417/496/417 431/505/431 432/506/432
f 409/495/409 425/507/425 410/497/410
f 417/496/417 433/508/433 418/498/418
f 411/499/411 425/507/425 426/509/426
f 418/498/418 434/510/434 419/500/419
f 412/501/412 426/509/426 427/511/427
f 405/503/405 148/512/148 420/513/420
f 374/514/374 419/500/419 434/510/434
f 412/501/412 428/515/428 413/488/413
f 405/503/405 421/516/421 406/489/406
f 413/488/413 429/517/429 414/490/414
f 407/491/407 421/516/421 422/518/422
f 415/492/415 429/517/429 430/519/430
f 407/491/407 423/520/423 408/493/408
f 415/492/415 431/505/431 416/494/416
f 409/495/409 423/520/423 424/521/424
f 420/522/420 436/523/436 421/524/421
f 428/525/428 444/526/444 429/527/429
f 422/528/422 436/523/436 437/529/437
f 430/530/430 444/526/444 445/531/445
f 422/528/422 438/532/438 423/533/423
f 430/530/430 446/534/446 431/535/431
f 424/536/424 438/532/438 439/537/439
f 432/538/432 446/534/446 447/539/447
f 424/536/424 440/540/440 425/541/425
f 432/538/432 448/542/448 433/543/433
f 426/544/426 440/540/440 441/545/441
f 433/543/433 449/546/449 434/547/434
f 427/548/427 441/545/441 442/549/442
f 420/522/420 148/550/148 435/551/435
f 374/552/374 434/547/434 449/546/449
f 427/548/427 443/553/443 428/525/428
f 439/537/439 455/554/455 440/540/440
f 447/539/447 463/555/463 448/542/448
f 441/545/441 455/554/455 456/556/456
f 448/542/448 464/557/464 449/546/449
f 442/549/442 456/556/456 457/558/457
f 435/551/435 148/559/148 450/560/450
f 374/561/374 449/546/449 464/557/464
f 442/549/442 458/562/458 443/553/443
f 435/551/435 451/563/451 436/523/436
f 443/553/443 459/564/459 444/526/444
f 437/529/437 451/563/451 452/565/452
f 445/531/445 459/564/459 460/566/460
f 437/529/437 453/567/453 438/532/438
f 445/531/445 461/568/461 446/534/446
f 439/537/439 453/567/453 454/569/454
f 447/539/447 461/568/461 462/570/462
f 458/562/458 474/571/474 459/564/459
f 451/563/451 467/572/467 452/565/452
f 460/566/460 474/571/474 475/573/475
f 452/565/452 468/574/468 453/567/453
f 460/566/460 476/575/476 461/568/461
f 454/569/454 468/574/468 469/576/469
f 462/570/462 476/575/476 477/577/477
f 454/569/454 470/578/470 455/554/455
f 463/555/463 477/577/477 478/579/478
f 456/556/456 470/578/470 471/580/471
f 463/555/463 479/581/479 464/557/464
f 457/558/457 471/580/471 472/582/472
f 450/560/450 148/583/148 465/584/465
f 374/585/374 464/557/464 479/581/479
f 457/558/457 473/586/473 458/562/458
f 451/563/451 465/584/465 466/587/466
f 477/577/477 493/588/493 478/579/478
f 471/580/471 485/589/485 486/590/486
f 478/579/478 494/591/494 479/581/479
f 472/582/472 486/590/486 487/592/487
f 465/584/465 148/593/148 480/594/480
f 374/595/374 479/581/479 494/591/494
f 472/582/472 488/596/488 473/586/473
f 465/584/465 481/597/481 466/587/466
f 473/586/473 489/598/489 474/571/474
f 467/572/467 481/597/481 482/599/482
f 475/573/475 489/598/489 490/600/490
f 467/572/467 483/601/483 468/574/468
f 475/573/475 491/602/491 476/575/476
f 469/576/469 483/601/483 484/603/484
f 477/577/477 491/602/491 492/604/492
f 469/576/469 485/589/485 470/578/470
f 490/600/490 504/605/504 505/606/505
f 482/599/482 498/607/498 483/601/483
f 490/600/490 506/608/506 491/602/491
f 484/603/484 498/607/498 499/609/499
f 492/604/492 506/608/506 507/610/507
f 484/603/484 500/611/500 485/589/485
f 492/604/492 508/612/508 493/588/493
f 486/590/486 500/611/500 501/613/501
f 493/588/493 509/614/509 494/591/494
f 487/592/487 501/613/501 502/615/502
f 480/594/480 148/616/148 495/617/495
f 374/618/374 494/591/494 509/614/509
f 487/592/487 503/619/503 488/596/488
f 480/594/480 496/620/496 481/597/481
f 488/596/488 504/605/504 489/598/489
f 482/599/482 496/620/496 497/621/497
f 508/612/508 524/622/524 509/614/509
f 502/615/502 516/623/516 517/624/517
f 495/617/495 148/625/148 510/626/510
f 374/627/374 509/614/509 524/622/524
f 502/615/502 518/628/518 503/619/503
f 496/620/496 510/626/510 511/629/511
f 503/619/503 519/630/519 504/605/504
f 496/620/496 512/631/512 497/621/497
f 505/606/505 519/630/519 520/632/520
f 497/621/497 513/633/513 498/607/498
f 505/606/505 521/634/521 506/608/506
f 499/609/499 513/633/513 514/635/514
f 507/610/507 521/634/521 522/636/522
f 499/609/499 515/637/515 500/611/500
f 507/610/507 523/638/523 508/612/508
f 501/613/501 515/637/515 516/623/516
f 512/631/512 528/639/528 513/633/513
f 520/632/520 536/640/536 521/634/521
f 514/635/514 528/639/528 529/641/529
f 522/636/522 536/640/536 537/642/537
f 514/635/514 530/643/530 515/637/515
f 522/636/522 538/644/538 523/638/523
f 516/623/516 530/643/530 531/645/531
f 524/622/524 538/644/538 539/646/539
f 517/624/517 531/645/531 532/647/532
f 510/626/510 148/648/148 525/649/525
f 374/650/374 524/622/524 539/646/539
f 517/624/517 533/651/533 518/628/518
f 510/626/510 526/652/526 511/629/511
f 518/628/518 534/653/534 519/630/519
f 512/631/512 526/652/526 527/654/527
f 520/632/520 534/653/534 535/655/535
f 532/647/532 69/102/69 70/104/70
f 525/649/525 148/656/148 540/105/540
f 374/657/374 539/646/539 548/101/548
f 532/647/532 71/110/71 533/651/533
f 526/652/526 540/105/540 541/111/541
f 533/651/533 544/114/544 534/653/534
f 527/654/527 541/111/541 67/115/67
f 534/653/534 72/118/72 535/655/535
f 528/639/528 67/115/67 542/119/542
f 535/655/535 545/122/545 536/640/536
f 529/641/529 542/119/542 68/123/68
f 537/642/537 545/122/545 546/126/546
f 530/643/530 68/123/68 543/127/543
f 537/642/537 547/99/547 538/644/538
f 531/645/531 543/127/543 69/102/69
f 538/644/538 548/101/548 539/646/539
f 547/99/547 86/129/86 87/100/87
f 69/102/69 79/130/79 80/103/80
f 70/104/70 80/103/80 81/109/81
f 541/111/541 540/105/540 73/107/73
f 71/110/71 81/109/81 82/113/82
f 67/115/67 541/111/541 74/112/74
f 544/114/544 82/113/82 83/117/83
f 542/119/542 67/115/67 75/116/75
f 72/118/72 83/117/83 84/121/84
f 68/123/68 542/119/542 76/120/76
f 545/122/545 84/121/84 85/125/85
f 543/127/543 68/123/68 77/124/77
f 546/126/546 85/125/85 86/129/86
f 69/102/69 543/127/543 78/128/78
f 86/129/86 85/125/85 100/131/100
f 79/130/79 78/128/78 93/133/93
f 86/129/86 101/132/101 102/135/102
f 79/130/79 94/134/94 95/136/95
f 80/103/80 95/136/95 96/140/96
f 73/107/73 88/138/88 89/141/89
f 81/109/81 96/140/96 97/142/97
f 74/112/74 89/141/89 90/143/90
f 82/113/82 97/142/97 98/144/98
f 75/116/75 90/143/90 91/145/91
f 83/117/83 98/144/98 99/146/99
f 76/120/76 91/145/91 92/147/92
f 85/125/85 84/121/84 99/146/99
f 77/124/77 92/147/92 93/133/93
f 89/141/89 104/164/104 105/148/105
f 98/144/98 97/142/97 112/149/112
f 90/143/90 105/148/105 106/151/106
f 99/146/99 98/144/98 113/150/113
f 91/145/91 106/151/106 107/153/107
f 100/131/100 99/146/99 114/152/114
f 92/147/92 107/153/107 108/155/108
f 100/131/100 115/154/115 116/156/116
f 93/133/93 108/155/108 109/157/109
f 101/132/101 116/156/116 117/158/117
f 94/134/94 109/157/109 110/159/110
f 96/140/96 95/136/95 110/159/110
f 88/138/88 103/161/103 104/164/104
f 96/140/96 111/163/111 112/149/112
f 109/157/109 108/155/108 123/165/123
f 116/156/116 131/181/131 132/167/132
f 110/159/110 109/157/109 124/166/124
f 110/159/110 125/168/125 126/172/126
f 103/161/103 118/170/118 119/173/119
f 111/163/111 126/172/126 127/174/127
f 104/164/104 119/173/119 120/175/120
f 113/150/113 112/149/112 127/174/127
f 105/148/105 120/175/120 121/177/121
f 113/150/113 128/176/128 129/178/129
f 106/151/106 121/177/121 122/179/122
f 114/152/114 129/178/129 130/180/130
f 107/153/107 122/179/122 123/165/123
f 115/154/115 130/180/130 131/181/131
f 128/176/128 127/174/127 142/182/142
f 120/175/120 135/198/135 136/184/136
f 128/176/128 143/183/143 144/185/144
f 122/179/122 121/177/121 136/184/136
f 129/178/129 144/185/144 145/187/145
f 122/179/122 137/186/137 138/188/138
f 131/181/131 130/180/130 145/187/145
f 124/166/124 123/165/123 138/188/138
f 131/181/131 146/189/146 147/191/147
f 125/168/125 124/166/124 139/190/139
f 125/168/125 140/192/140 141/196/141
f 118/170/118 133/194/133 134/197/134
f 126/172/126 141/196/141 142/182/142
f 119/173/119 134/197/134 135/198/135
f 147/191/147 146/189/146 162/199/162
f 140/192/140 139/190/139 155/201/155
f 140/192/140 156/202/156 157/206/157
f 133/194/133 149/204/149 150/207/150
f 141/196/141 157/206/157 158/208/158
f 134/197/134 150/207/150 151/209/151
f 143/183/143 142/182/142 158/208/158
f 135/198/135 151/209/151 152/211/152
f 143/183/143 159/210/159 160/212/160
f 137/186/137 136/184/136 152/211/152
f 144/185/144 160/212/160 161/214/161
f 137/186/137 153/213/153 154/215/154
f 145/187/145 161/214/161 162/199/162
f 139/190/139 138/188/138 154/215/154
f 151/209/151 166/231/166 167/216/167
f 159/210/159 174/232/174 175/217/175
f 153/213/153 152/211/152 167/216/167
f 161/214/161 160/212/160 175/217/175
f 153/213/153 168/218/168 169/220/169
f 162/199/162 161/214/161 176/219/176
f 155/201/155 154/215/154 169/220/169
f 162/199/162 177/221/177 178/223/178
f 156/202/156 155/201/155 170/222/170
f 156/202/156 171/224/171 172/228/172
f 150/207/150 149/204/149 164/226/164
f 157/206/157 172/228/172 173/230/173
f 150/207/150 165/229/165 166/231/166
f 159/210/159 158/208/158 173/230/173
f 171/224/171 170/222/170 185/233/185
f 171/224/171 186/234/186 187/239/187
f 165/229/165 164/226/164 179/236/179
f 172/228/172 187/239/187 188/241/188
f 165/229/165 180/240/180 181/242/181
f 174/232/174 173/230/173 188/241/188
f 166/231/166 181/242/181 182/244/182
f 174/232/174 189/243/189 190/245/190
f 168/218/168 167/216/167 182/244/182
f 176/219/176 175/217/175 190/245/190
f 168/218/168 183/246/183 184/248/184
f 176/219/176 191/247/191 192/249/192
f 170/222/170 169/220/169 184/248/184
f 177/221/177 192/249/192 193/238/193
f 189/243/189 204/266/204 205/250/205
f 183/246/183 182/244/182 197/251/197
f 191/247/191 190/245/190 205/250/205
f 183/246/183 198/252/198 199/254/199
f 191/247/191 206/253/206 207/255/207
f 185/233/185 184/248/184 199/254/199
f 192/249/192 207/255/207 208/257/208
f 186/234/186 185/233/185 200/256/200
f 186/234/186 201/258/201 202/262/202
f 179/236/179 194/260/194 195/263/195
f 187/239/187 202/262/202 203/264/203
f 180/240/180 195/263/195 196/265/196
f 189/243/189 188/241/188 203/264/203
f 181/242/181 196/265/196 197/251/197
f 201/258/201 216/281/216 217/269/217
f 194/260/194 209/283/209 210/270/210
f 202/262/202 217/269/217 218/271/218
f 196/265/196 195/263/195 210/270/210
f 204/266/204 203/264/203 218/271/218
f 196/265/196 211/272/211 212/274/212
f 204/266/204 219/273/219 220/275/220
f 198/252/198 197/251/197 212/274/212
f 206/253/206 205/250/205 220/275/220
f 198/252/198 213/276/213 214/278/214
f 206/253/206 221/277/221 222/279/222
f 200/256/200 199/254/199 214/278/214
f 208/257/208 207/255/207 222/279/222
f 201/258/201 200/256/200 215/280/215
f 221/277/221 220/275/220 235/284/235
f 213/276/213 228/300/228 229/286/229
f 221/277/221 236/285/236 237/287/237
f 215/280/215 214/278/214 229/286/229
f 222/279/222 237/287/237 238/289/238
f 216/281/216 215/280/215 230/288/230
f 216/281/216 231/290/231 232/294/232
f 209/283/209 224/292/224 225/295/225
f 217/269/217 232/294/232 233/296/233
f 211/272/211 210/270/210 225/295/225
f 219/273/219 218/271/218 233/296/233
f 211/272/211 226/297/226 227/299/227
f 219/273/219 234/298/234 235/284/235
f 213/276/213 212/274/212 227/299/227
f 224/292/224 239/315/239 240/301/240
f 232/294/232 247/317/247 248/302/248
f 225/295/225 240/301/240 241/303/241
f 234/298/234 233/296/233 248/302/248
f 226/297/226 241/303/241 242/305/242
f 234/298/234 249/304/249 250/306/250
f 228/300/228 227/299/227 242/305/242
f 235/284/235 250/306/250 251/308/251
f 228/300/228 243/307/243 244/309/244
f 237/287/237 236/285/236 251/308/251
f 230/288/230 229/286/229 244/309/244
f 238/289/238 237/287/237 252/310/252
f 231/290/231 230/288/230 245/311/245
f 231/290/231 246/313/246 247/317/247
f 243/307/243 258/333/258 259/318/259
f 251/308/251 266/334/266 267/319/267
f 245/311/245 244/309/244 259/318/259
f 252/310/252 267/319/267 268/321/268
f 246/313/246 245/311/245 260/320/260
f 246/313/246 261/322/261 262/326/262
f 240/301/240 239/315/239 254/324/254
f 247/317/247 262/326/262 263/328/263
f 241/303/241 240/301/240 255/327/255
f 249/304/249 248/302/248 263/328/263
f 241/303/241 256/329/256 257/331/257
f 249/304/249 264/330/264 265/332/265
f 243/307/243 242/305/242 257/331/257
f 251/308/251 250/306/250 265/332/265
f 262/326/262 277/350/277 278/335/278
f 255/327/255 270/351/270 271/336/271
f 264/330/264 263/328/263 278/335/278
f 256/329/256 271/336/271 272/338/272
f 264/330/264 279/337/279 280/339/280
f 258/333/258 257/331/257 272/338/272
f 266/334/266 265/332/265 280/339/280
f 258/333/258 273/340/273 274/342/274
f 266/334/266 281/341/281 282/343/282
f 260/320/260 259/318/259 274/342/274
f 267/319/267 282/343/282 283/345/283
f 261/322/261 260/320/260 275/344/275
f 261/322/261 276/346/276 277/350/277
f 254/324/254 269/348/269 270/351/270
f 281/341/281 296/368/296 297/352/297
f 275/344/275 274/342/274 289/353/289
f 282/343/282 297/352/297 298/355/298
f 276/346/276 275/344/275 290/354/290
f 276/346/276 291/356/291 292/360/292
f 269/348/269 284/358/284 285/361/285
f 277/350/277 292/360/292 293/362/293
f 270/351/270 285/361/285 286/363/286
f 279/337/279 278/335/278 293/362/293
f 271/336/271 286/363/286 287/365/287
f 279/337/279 294/364/294 295/366/295
f 273/340/273 272/338/272 287/365/287
f 281/341/281 280/339/280 295/366/295
f 273/340/273 288/367/288 289/353/289
f 286/363/286 285/361/285 300/369/300
f 294/364/294 293/362/293 308/371/308
f 286/363/286 301/370/301 302/373/302
f 294/364/294 309/372/309 310/374/310
f 288/367/288 287/365/287 302/373/302
f 296/368/296 295/366/295 310/374/310
f 288/367/288 303/375/303 304/377/304
f 296/368/296 311/376/311 312/378/312
f 290/354/290 289/353/289 304/377/304
f 298/355/298 297/352/297 312/378/312
f 291/356/291 290/354/290 305/379/305
f 291/356/291 306/381/306 307/385/307
f 284/358/284 299/383/299 300/369/300
f 292/360/292 307/385/307 308/371/308
f 305/379/305 304/377/304 319/386/319
f 312/378/312 327/402/327 328/388/328
f 306/381/306 305/379/305 320/387/320
f 306/381/306 321/389/321 322/393/322
f 299/383/299 314/391/314 315/394/315
f 307/385/307 322/393/322 323/395/323
f 300/369/300 315/394/315 316/396/316
f 309/372/309 308/371/308 323/395/323
f 301/370/301 316/396/316 317/398/317
f 309/372/309 324/397/324 325/399/325
f 303/375/303 302/373/302 317/398/317
f 311/376/311 310/374/310 325/399/325
f 303/375/303 318/400/318 319/386/319
f 311/376/311 326/401/326 327/402/327
f 324/397/324 323/395/323 338/403/338
f 316/396/316 331/419/331 332/405/332
f 324/397/324 339/404/339 340/406/340
f 318/400/318 317/398/317 332/405/332
f 326/401/326 325/399/325 340/406/340
f 318/400/318 333/407/333 334/409/334
f 326/401/326 341/408/341 342/410/342
f 320/387/320 319/386/319 334/409/334
f 327/402/327 342/410/342 343/412/343
f 321/389/321 320/387/320 335/411/335
f 321/389/321 336/413/336 337/417/337
f 315/394/315 314/391/314 329/415/329
f 322/393/322 337/417/337 338/403/338
f 315/394/315 330/418/330 331/419/331
f 343/412/343 342/410/342 357/420/357
f 336/413/336 335/411/335 350/422/350
f 336/413/336 351/423/351 352/427/352
f 330/418/330 329/415/329 344/425/344
f 337/417/337 352/427/352 353/429/353
f 330/418/330 345/428/345 346/430/346
f 339/404/339 338/403/338 353/429/353
f 331/419/331 346/430/346 347/432/347
f 339/404/339 354/431/354 355/433/355
f 333/407/333 332/405/332 347/432/347
f 341/408/341 340/406/340 355/433/355
f 333/407/333 348/434/348 349/436/349
f 341/408/341 356/435/356 357/420/357
f 335/411/335 334/409/334 349/436/349
f 354/431/354 369/453/369 370/437/370
f 348/434/348 347/432/347 362/438/362
f 356/435/356 355/433/355 370/437/370
f 348/434/348 363/439/363 364/441/364
f 356/435/356 371/440/371 372/442/372
f 350/422/350 349/436/349 364/441/364
f 358/421/358 357/420/357 372/442/372
f 351/423/351 350/422/350 365/443/365
f 351/423/351 366/445/366 367/449/367
f 344/425/344 359/447/359 360/450/360
f 352/427/352 367/449/367 368/451/368
f 345/428/345 360/450/360 361/452/361
f 354/431/354 353/429/353 368/451/368
f 346/430/346 361/452/361 362/438/362
f 366/445/366 382/470/382 383/458/383
f 359/447/359 375/455/375 376/459/376
f 367/449/367 383/458/383 384/460/384
f 360/450/360 376/459/376 377/461/377
f 369/453/369 368/451/368 384/460/384
f 361/452/361 377/461/377 378/463/378
f 369/453/369 385/462/385 386/464/386
f 363/439/363 362/438/362 378/463/378
f 371/440/371 370/437/370 386/464/386
f 363/439/363 379/465/379 380/467/380
f 371/440/371 387/466/387 388/468/388
f 365/443/365 364/441/364 380/467/380
f 372/442/372 388/468/388 389/457/389
f 366/445/366 365/443/365 381/469/381
f 378/463/378 393/487/393 394/471/394
f 387/466/387 386/464/386 401/472/401
f 379/465/379 394/471/394 395/474/395
f 387/466/387 402/473/402 403/475/403
f 381/469/381 380/467/380 395/474/395
f 388/468/388 403/475/403 404/477/404
f 382/470/382 381/469/381 396/476/396
f 382/470/382 397/478/397 398/482/398
f 375/455/375 390/480/390 391/483/391
f 383/458/383 398/482/398 399/484/399
f 376/459/376 391/483/391 392/485/392
f 385/462/385 384/460/384 399/484/399
f 377/461/377 392/485/392 393/487/393
f 385/462/385 400/486/400 401/472/401
f 397/478/397 412/501/412 413/488/413
f 390/480/390 405/503/405 406/489/406
f 398/482/398 413/488/413 414/490/414
f 391/483/391 406/489/406 407/491/407
f 400/486/400 399/484/399 414/490/414
f 392/485/392 407/491/407 408/493/408
f 400/486/400 415/492/415 416/494/416
f 394/471/394 393/487/393 408/493/408
f 402/473/402 401/472/401 416/494/416
f 394/471/394 409/495/409 410/497/410
f 402/473/402 417/496/417 418/498/418
f 396/476/396 395/474/395 410/497/410
f 403/475/403 418/498/418 419/500/419
f 397/478/397 396/476/396 411/499/411
f 417/496/417 416/494/416 431/505/431
f 409/495/409 424/521/424 425/507/425
f 417/496/417 432/506/432 433/508/433
f 411/499/411 410/497/410 425/507/425
f 418/498/418 433/508/433 434/510/434
f 412/501/412 411/499/411 426/509/426
f 412/501/412 427/511/427 428/515/428
f 405/503/405 420/513/420 421/516/421
f 413/488/413 428/515/428 429/517/429
f 407/491/407 406/489/406 421/516/421
f 415/492/415 414/490/414 429/517/429
f 407/491/407 422/518/422 423/520/423
f 415/492/415 430/519/430 431/505/431
f 409/495/409 408/493/408 423/520/423
f 420/522/420 435/551/435 436/523/436
f 428/525/428 443/553/443 444/526/444
f 422/528/422 421/524/421 436/523/436
f 430/530/430 429/527/429 444/526/444
f 422/528/422 437/529/437 438/532/438
f 430/530/430 445/531/445 446/534/446
f 424/536/424 423/533/423 438/532/438
f 432/538/432 431/535/431 446/534/446
f 424/536/424 439/537/439 440/540/440
f 432/538/432 447/539/447 448/542/448
f 426/544/426 425/541/425 440/540/440
f 433/543/433 448/542/448 449/546/449
f 427/548/427 426/544/426 441/545/441
f 427/548/427 442/549/442 443/553/443
f 439/537/439 454/569/454 455/554/455
f 447/539/447 462/570/462 463/555/463
f 441/545/441 440/540/440 455/554/455
f 448/542/448 463/555/463 464/557/464
f 442/549/442 441/545/441 456/556/456
f 442/549/442 457/558/457 458/562/458
f 435/551/435 450/560/450 451/563/451
f 443/553/443 458/562/458 459/564/459
f 437/529/437 436/523/436 451/563/451
f 445/531/445 444/526/444 459/564/459
f 437/529/437 452/565/452 453/567/453
f 445/531/445 460/566/460 461/568/461
f 439/537/439 438/532/438 453/567/453
f 447/539/447 446/534/446 461/568/461
f 458/562/458 473/586/473 474/571/474
f 451/563/451 466/587/466 467/572/467
f 460/566/460 459/564/459 474/571/474
f 452/565/452 467/572/467 468/574/468
f 460/566/460 475/573/475 476/575/476
f 454/569/454 453/567/453 468/574/468
f 462/570/462 461/568/461 476/575/476
f 454/569/454 469/576/469 470/578/470
f 463/555/463 462/570/462 477/577/477
f 456/556/456 455/554/455 470/578/470
f 463/555/463 478/579/478 479/581/479
f 457/558/457 456/556/456 471/580/471
f 457/558/457 472/582/472 473/586/473
f 451/563/451 450/560/450 465/584/465
f 477/577/477 492/604/492 493/588/493
f 471/580/471 470/578/470 485/589/485
f 478/579/478 493/588/493 494/591/494
f 472/582/472 471/580/471 486/590/486
f 472/582/472 487/592/487 488/596/488
f 465/584/465 480/594/480 481/597/481
f 473/586/473 488/596/488 489/598/489
f 467/572/467 466/587/466 481/597/481
f 475/573/475 474/571/474 489/598/489
f 467/572/467 482/599/482 483/601/483
f 475/573/475 490/600/490 491/602/491
f 469/576/469 468/574/468 483/601/483
f 477/577/477 476/575/476 491/602/491
f 469/576/469 484/603/484 485/589/485
f 490/600/490 489/598/489 504/605/504
f 482/599/482 497/621/497 498/607/498
f 490/600/490 505/606/505 506/608/506
f 484/603/484 483/601/483 498/607/498
f 492/604/492 491/602/491 506/608/506
f 484/603/484 499/609/499 500/611/500
f 492/604/492 507/610/507 508/612/508
f 486/590/486 485/589/485 500/611/500
f 493/588/493 508/612/508 509/614/509
f 487/592/487 486/590/486 501/613/501
f 487/592/487 502/615/502 503/619/503
f 480/594/480 495/617/495 496/620/496
f 488/596/488 503/619/503 504/605/504
f 482/599/482 481/597/481 496/620/496
f 508/612/508 523/638/523 524/622/524
f 502/615/502 501/613/501 516/623/516
f 502/615/502 517/624/517 518/628/518
f 496/620/496 495/617/495 510/626/510
f 503/619/503 518/628/518 519/630/519
f 496/620/496 511/629/511 512/631/512
f 505/606/505 504/605/504 519/630/519
f 497/621/497 512/631/512 513/633/513
f 505/606/505 520/632/520 521/634/521
f 499/609/499 498/607/498 513/633/513
f 507/610/507 506/608/506 521/634/521
f 499/609/499 514/635/514 515/637/515
f 507/610/507 522/636/522 523/638/523
f 501/613/501 500/611/500 515/637/515
f 512/631/512 527/654/527 528/639/528
f 520/632/520 535/655/535 536/640/536
f 514/635/514 513/633/513 528/639/528
f 522/636/522 521/634/521 536/640/536
f 514/635/514 529/641/529 530/643/530
f 522/636/522 537/642/537 538/644/538
f 516/623/516 515/637/515 530/643/530
f 524/622/524 523/638/523 538/644/538
f 517/624/517 516/623/516 531/645/531
f 517/624/517 532/647/532 533/651/533
f 510/626/510 525/649/525 526/652/526
f 518/628/518 533/651/533 534/653/534
f 512/631/512 511/629/511 526/652/526
f 520/632/520 519/630/519 534/653/534
f 532/647/532 531/645/531 69/102/69
f 532/647/532 70/104/70 71/110/71
f 526/652/526 525/649/525 540/105/540
f 533/651/533 71/110/71 544/114/544
f 527/654/527 526/652/526 541/111/541
f 534/653/534 544/114/544 72/118/72
f 528/639/528 527/654/527 67/115/67
f 535/655/535 72/118/72 545/122/545
f 529/641/529 528/639/528 542/119/542
f 537/642/537 536/640/536 545/122/545
f 530/643/530 529/641/529 68/123/68
f 537/642/537 546/126/546 547/99/547
f 531/645/531 530/643/530 543/127/543
f 538/644/538 547/99/547 548/101/548
