# Blender 4.4.3
# www.blender.org
mtllib television.mtl
o Cube
v -0.890000 1.100000 0.050000
v -0.890000 0.100000 0.050000
v -0.890000 1.100000 -0.050000
v -0.890000 0.100000 -0.050000
v 0.890000 1.100000 0.050000
v 0.890000 0.100000 0.050000
v 0.890000 1.100000 -0.050000
v 0.890000 0.100000 -0.050000
v 0.860724 0.125000 -0.050000
v 0.860724 1.075000 -0.050000
v -0.860724 1.075000 -0.050000
v -0.860724 0.125000 -0.050000
v 0.860724 0.125000 -0.030000
v 0.860724 1.075000 -0.030000
v -0.860724 1.075000 -0.030000
v -0.860724 0.125000 -0.030000
vn -0.0558 0.0993 0.9935
vn -0.0558 -0.0993 0.9935
vn -0.0558 0.0994 -0.9935
vn -0.0558 -0.0993 -0.9935
vn 0.0558 0.0993 0.9935
vn 0.0558 -0.0993 0.9935
vn 0.0558 0.0993 -0.9935
vn 0.0558 -0.0994 -0.9935
vn -0.0187 0.0333 -0.9993
vn -0.0187 -0.0333 -0.9993
vn 0.0187 -0.0333 -0.9993
vn 0.0187 0.0333 -0.9993
vn -0.0558 0.0993 -0.9935
vn 0.0558 -0.0993 -0.9935
vt 0.234552 0.850251
vt 0.469104 0.624267
vt 0.469104 0.850251
vt 0.474968 0.847319
vt 0.469104 0.850251
vt 0.749995 0.469104
vt 0.940179 0.234552
vt 0.940179 0.469104
vt 0.234552 0.850251
vt 0.000000 0.624267
vt 0.234552 0.624267
vt 0.749995 0.234552
vt 0.940179 0.000000
vt 0.940179 0.234552
vt 0.749995 0.624267
vt 0.375000 -0.000000
vt 0.749995 -0.000000
vt 0.788030 0.469104
vt 0.826067 0.697792
vt 0.788030 0.697792
vt 0.745238 0.847319
vt 0.749993 0.850251
vt 0.749995 0.624267
vt 0.474968 0.627199
vt 0.745240 0.627199
vt 0.375000 0.624267
vt -0.000000 0.000000
vt 0.375000 0.000000
vt 0.826067 0.469104
vt 0.864105 0.691928
vt 0.826067 0.691928
vt 0.749995 0.469104
vt 0.788030 0.697792
vt 0.749993 0.697792
vt 0.902142 0.691928
vt 0.864105 0.469104
vt 0.902142 0.469104
vt 0.749995 0.234552
vt 0.000000 0.850251
vt 0.749995 0.000000
vt 0.375000 0.624267
vt -0.000000 0.624267
vt 0.864105 0.469104
vt 0.788030 0.469104
vt 0.864105 0.691928
s 1
usemtl Material
f 5/1/5 3/2/3 1/3/1
f 7/2/7 11/4/11 3/5/3
f 7/6/7 6/7/6 8/8/8
f 2/9/2 8/10/8 6/11/6
f 1/12/1 4/13/4 2/14/2
f 5/15/5 2/16/2 6/17/6
f 12/18/12 13/19/13 9/20/9
f 3/5/3 12/21/12 4/22/4
f 8/23/8 10/24/10 7/2/7
f 4/22/4 9/25/9 8/23/8
f 15/26/14 13/27/13 16/28/7
f 11/29/11 16/30/7 12/31/12
f 10/32/10 15/33/14 11/34/11
f 9/35/9 14/36/4 10/37/10
f 5/1/5 7/11/7 3/2/3
f 7/2/7 10/24/10 11/4/11
f 7/6/7 5/38/5 6/7/6
f 2/9/2 4/39/4 8/10/8
f 1/12/1 3/40/3 4/13/4
f 5/15/5 1/41/1 2/16/2
f 12/18/12 16/29/7 13/19/13
f 3/5/3 11/4/11 12/21/12
f 8/23/8 9/25/9 10/24/10
f 4/22/4 12/21/12 9/25/9
f 15/26/14 14/42/4 13/27/13
f 11/29/11 15/43/14 16/30/7
f 10/32/10 14/44/4 15/33/14
f 9/35/9 13/45/13 14/36/4
o Cube.001
v 0.500000 -0.020000 -0.100000
v 0.500000 0.020000 -0.100000
v 0.500000 -0.020000 0.100000
v 0.500000 0.020000 0.100000
v -0.500000 -0.020000 -0.100000
v -0.500000 0.020000 -0.100000
v -0.500000 -0.020000 0.100000
v -0.500000 0.020000 0.100000
vn 0.0392 -0.9798 -0.1960
vn 0.0392 0.9798 -0.1960
vn 0.0392 -0.9798 0.1960
vn 0.0392 0.9798 0.1960
vn -0.0392 -0.9798 -0.1960
vn -0.0392 0.9798 -0.1960
vn -0.0392 -0.9798 0.1960
vn -0.0392 0.9798 0.1960
vt 0.749995 0.406909
vt 0.749995 0.469104
vt 0.182957 0.850251
vt 0.095000 0.938208
vt 0.095000 0.850251
vt 0.182957 0.938208
s 1
f 18/46/16 19/47/17 17/46/15
f 20/46/18 23/46/21 19/46/17
f 24/46/22 21/46/19 23/46/21
f 22/46/20 17/46/15 21/46/19
f 23/48/21 17/49/15 19/50/17
f 20/46/18 22/46/20 24/46/22
f 18/46/16 20/46/18 19/47/17
f 20/46/18 24/46/22 23/46/21
f 24/46/22 22/46/20 21/46/19
f 22/46/20 18/46/16 17/46/15
f 23/48/21 21/51/19 17/49/15
f 20/46/18 18/46/16 22/46/20
o Cylinder
v 0.000000 -0.000000 0.037500
v 0.000000 0.100000 0.037500
v -0.009755 -0.000000 0.036779
v -0.009755 0.100000 0.036779
v -0.019134 -0.000000 0.034645
v -0.019134 0.100000 0.034645
v -0.027779 -0.000000 0.031180
v -0.027779 0.100000 0.031180
v -0.035355 -0.000000 0.026517
v -0.035355 0.100000 0.026517
v -0.041573 -0.000000 0.020834
v -0.041573 0.100000 0.020834
v -0.046194 -0.000000 0.014351
v -0.046194 0.100000 0.014351
v -0.049039 -0.000000 0.007316
v -0.049039 0.100000 0.007316
v -0.050000 -0.000000 0.000000
v -0.050000 0.100000 0.000000
v -0.049039 -0.000000 -0.007316
v -0.049039 0.100000 -0.007316
v -0.046194 -0.000000 -0.014351
v -0.046194 0.100000 -0.014351
v -0.041573 -0.000000 -0.020834
v -0.041573 0.100000 -0.020834
v -0.035355 -0.000000 -0.026516
v -0.035355 0.100000 -0.026516
v -0.027779 -0.000000 -0.031180
v -0.027779 0.100000 -0.031180
v -0.019134 -0.000000 -0.034645
v -0.019134 0.100000 -0.034645
v -0.009755 -0.000000 -0.036779
v -0.009755 0.100000 -0.036779
v -0.000000 -0.000000 -0.037500
v -0.000000 0.100000 -0.037500
v 0.009755 -0.000000 -0.036779
v 0.009755 0.100000 -0.036779
v 0.019134 -0.000000 -0.034645
v 0.019134 0.100000 -0.034645
v 0.027779 -0.000000 -0.031180
v 0.027779 0.100000 -0.031180
v 0.035355 -0.000000 -0.026517
v 0.035355 0.100000 -0.026517
v 0.041573 -0.000000 -0.020834
v 0.041573 0.100000 -0.020834
v 0.046194 -0.000000 -0.014351
v 0.046194 0.100000 -0.014351
v 0.049039 -0.000000 -0.007316
v 0.049039 0.100000 -0.007316
v 0.050000 -0.000000 -0.000000
v 0.050000 0.100000 -0.000000
v 0.049039 -0.000000 0.007316
v 0.049039 0.100000 0.007316
v 0.046194 -0.000000 0.014351
v 0.046194 0.100000 0.014351
v 0.041573 -0.000000 0.020834
v 0.041573 0.100000 0.020834
v 0.035355 -0.000000 0.026516
v 0.035355 0.100000 0.026516
v 0.027779 -0.000000 0.031180
v 0.027779 0.100000 0.031180
v 0.019134 -0.000000 0.034645
v 0.019134 0.100000 0.034645
v 0.009755 -0.000000 0.036779
v 0.009755 0.100000 0.036779
vn -0.0000 -0.5770 0.8167
vn -0.0000 0.5770 0.8167
vn -0.1202 -0.5803 0.8055
vn -0.1202 0.5803 0.8055
vn -0.2396 -0.5898 0.7712
vn -0.2396 0.5898 0.7712
vn -0.3568 -0.6049 0.7119
vn -0.3568 0.6049 0.7119
vn -0.4687 -0.6244 0.6249
vn -0.4687 0.6244 0.6249
vn -0.5701 -0.6458 0.5079
vn -0.5700 0.6459 0.5079
vn -0.6531 -0.6659 0.3607
vn -0.6531 0.6659 0.3607
vn -0.7084 -0.6804 0.1879
vn -0.7084 0.6804 0.1879
vn -0.7279 -0.6857 -0.0000
vn -0.7279 0.6857 -0.0000
vn -0.7084 -0.6804 -0.1879
vn -0.7084 0.6804 -0.1879
vn -0.6531 -0.6659 -0.3607
vn -0.6531 0.6659 -0.3607
vn -0.5701 -0.6458 -0.5079
vn -0.5700 0.6459 -0.5079
vn -0.4687 -0.6244 -0.6249
vn -0.4687 0.6244 -0.6249
vn -0.3568 -0.6049 -0.7119
vn -0.3568 0.6049 -0.7119
vn -0.2396 -0.5898 -0.7712
vn -0.2396 0.5897 -0.7712
vn -0.1202 -0.5802 -0.8055
vn -0.1202 0.5803 -0.8055
vn -0.0000 -0.5770 -0.8167
vn -0.0000 0.5770 -0.8167
vn 0.1202 -0.5803 -0.8055
vn 0.1202 0.5803 -0.8055
vn 0.2396 -0.5898 -0.7712
vn 0.2396 0.5898 -0.7712
vn 0.3568 -0.6049 -0.7119
vn 0.3568 0.6049 -0.7119
vn 0.4687 -0.6244 -0.6249
vn 0.4687 0.6244 -0.6249
vn 0.5701 -0.6458 -0.5079
vn 0.5700 0.6459 -0.5079
vn 0.6531 -0.6659 -0.3607
vn 0.6531 0.6659 -0.3607
vn 0.7084 -0.6804 -0.1879
vn 0.7084 0.6804 -0.1879
vn 0.7279 -0.6857 -0.0000
vn 0.7279 0.6857 -0.0000
vn 0.7084 -0.6804 0.1879
vn 0.7084 0.6804 0.1879
vn 0.6531 -0.6659 0.3607
vn 0.6531 0.6659 0.3607
vn 0.5701 -0.6458 0.5079
vn 0.5700 0.6459 0.5079
vn 0.4687 -0.6244 0.6249
vn 0.4687 0.6244 0.6249
vn 0.3568 -0.6049 0.7119
vn 0.3568 0.6049 0.7119
vn 0.2396 -0.5898 0.7712
vn 0.2396 0.5897 0.7712
vn 0.1202 -0.5802 0.8055
vn 0.1202 0.5803 0.8055
vt 0.955024 0.469104
vt 0.966697 0.618853
vt 0.955024 0.618853
vt 0.966697 0.469104
vt 0.977692 0.618853
vt 0.977692 0.469104
vt 0.987588 0.618853
vt 0.870833 0.697792
vt 0.879248 0.847541
vt 0.870833 0.847541
vt 0.879248 0.697792
vt 0.889144 0.847541
vt 0.889144 0.697792
vt 0.900140 0.847541
vt 0.900140 0.697792
vt 0.911813 0.847541
vt 0.911813 0.697792
vt 0.923715 0.847541
vt 0.923715 0.697792
vt 0.935387 0.847541
vt 0.935387 0.697792
vt 0.946383 0.847541
vt 0.946383 0.697792
vt 0.956279 0.847541
vt 0.956279 0.697792
vt 0.964695 0.847541
vt 0.870833 0.847541
vt 0.879248 0.997291
vt 0.870833 0.997291
vt 0.879248 0.847541
vt 0.889144 0.997291
vt 0.889144 0.847541
vt 0.900140 0.997291
vt 0.900140 0.847541
vt 0.911813 0.997291
vt 0.911813 0.847541
vt 0.923714 0.997291
vt 0.923714 0.847541
vt 0.935387 0.997291
vt 0.935387 0.847541
vt 0.946383 0.997291
vt 0.946383 0.847541
vt 0.956279 0.997291
vt 0.000000 0.850251
vt 0.012204 1.000000
vt 0.000000 1.000000
vt 0.012204 0.850251
vt 0.025765 1.000000
vt 0.025765 0.850251
vt 0.040161 1.000000
vt 0.040161 0.850251
vt 0.054839 1.000000
vt 0.054839 0.850251
vt 0.069235 1.000000
vt 0.069235 0.850251
vt 0.082796 1.000000
vt 0.082796 0.850251
vt 0.095000 1.000000
vt 0.902142 0.469104
vt 0.910558 0.618853
vt 0.902142 0.618853
vt 0.910558 0.469104
vt 0.920453 0.618853
vt 0.920453 0.469104
vt 0.931449 0.618853
vt 0.870833 0.913995
vt 0.816364 0.995848
vt 0.749993 0.928673
vt 0.931449 0.469104
vt 0.943122 0.618853
vt 0.943122 0.469104
vt 0.868511 0.794041
vt 0.792789 0.843957
vt 0.752315 0.750571
vt 0.987588 0.469104
vt 0.964695 0.697792
vt 0.956279 0.847541
vt 0.095000 0.850251
vt 0.749993 0.913995
vt 0.752315 0.899599
vt 0.756869 0.886039
vt 0.763482 0.873834
vt 0.771897 0.863455
vt 0.781793 0.855301
vt 0.792789 0.849684
vt 0.804462 0.846820
vt 0.816364 0.846820
vt 0.828036 0.849684
vt 0.839032 0.855301
vt 0.848928 0.863455
vt 0.857344 0.873834
vt 0.863956 0.886039
vt 0.868511 0.899599
vt 0.870833 0.928673
vt 0.868511 0.943069
vt 0.863956 0.956630
vt 0.857344 0.968834
vt 0.848928 0.979213
vt 0.839032 0.987368
vt 0.828037 0.992985
vt 0.804462 0.995849
vt 0.792789 0.992985
vt 0.781793 0.987368
vt 0.771897 0.979213
vt 0.763482 0.968834
vt 0.756869 0.956630
vt 0.752315 0.943069
vt 0.756869 0.737010
vt 0.763482 0.724806
vt 0.771897 0.714427
vt 0.781793 0.706272
vt 0.792789 0.700655
vt 0.804462 0.697792
vt 0.816364 0.697792
vt 0.828037 0.700655
vt 0.839032 0.706272
vt 0.848928 0.714427
vt 0.857344 0.724806
vt 0.863956 0.737010
vt 0.868511 0.750571
vt 0.870833 0.764967
vt 0.870833 0.779645
vt 0.863956 0.807602
vt 0.857344 0.819806
vt 0.848928 0.830185
vt 0.839032 0.838340
vt 0.828036 0.843957
vt 0.804462 0.846820
vt 0.781793 0.838340
vt 0.771897 0.830185
vt 0.763481 0.819806
vt 0.756869 0.807602
vt 0.752315 0.794041
vt 0.749993 0.779645
vt 0.749993 0.764967
s 1
f 26/52/24 27/53/25 25/54/23
f 28/55/26 29/56/27 27/53/25
f 30/57/28 31/58/29 29/56/27
f 32/59/30 33/60/31 31/61/29
f 34/62/32 35/63/33 33/60/31
f 36/64/34 37/65/35 35/63/33
f 38/66/36 39/67/37 37/65/35
f 40/68/38 41/69/39 39/67/37
f 42/70/40 43/71/41 41/69/39
f 44/72/42 45/73/43 43/71/41
f 46/74/44 47/75/45 45/73/43
f 48/76/46 49/77/47 47/75/45
f 50/78/48 51/79/49 49/80/47
f 52/81/50 53/82/51 51/79/49
f 54/83/52 55/84/53 53/82/51
f 56/85/54 57/86/55 55/84/53
f 58/87/56 59/88/57 57/86/55
f 60/89/58 61/90/59 59/88/57
f 62/91/60 63/92/61 61/90/59
f 64/93/62 65/94/63 63/92/61
f 66/95/64 67/96/65 65/97/63
f 68/98/66 69/99/67 67/96/65
f 70/100/68 71/101/69 69/99/67
f 72/102/70 73/103/71 71/101/69
f 74/104/72 75/105/73 73/103/71
f 76/106/74 77/107/75 75/105/73
f 78/108/76 79/109/77 77/107/75
f 80/110/78 81/111/79 79/112/77
f 82/113/80 83/114/81 81/111/79
f 84/115/82 85/116/83 83/114/81
f 62/117/60 46/118/44 30/119/28
f 86/120/84 87/121/85 85/116/83
f 88/122/86 25/54/23 87/121/85
f 55/123/53 71/124/69 87/125/85
f 26/52/24 28/55/26 27/53/25
f 28/55/26 30/57/28 29/56/27
f 30/57/28 32/126/30 31/58/29
f 32/59/30 34/62/32 33/60/31
f 34/62/32 36/64/34 35/63/33
f 36/64/34 38/66/36 37/65/35
f 38/66/36 40/68/38 39/67/37
f 40/68/38 42/70/40 41/69/39
f 42/70/40 44/72/42 43/71/41
f 44/72/42 46/74/44 45/73/43
f 46/74/44 48/76/46 47/75/45
f 48/76/46 50/127/48 49/77/47
f 50/78/48 52/81/50 51/79/49
f 52/81/50 54/83/52 53/82/51
f 54/83/52 56/85/54 55/84/53
f 56/85/54 58/87/56 57/86/55
f 58/87/56 60/89/58 59/88/57
f 60/89/58 62/91/60 61/90/59
f 62/91/60 64/93/62 63/92/61
f 64/93/62 66/128/64 65/94/63
f 66/95/64 68/98/66 67/96/65
f 68/98/66 70/100/68 69/99/67
f 70/100/68 72/102/70 71/101/69
f 72/102/70 74/104/72 73/103/71
f 74/104/72 76/106/74 75/105/73
f 76/106/74 78/108/76 77/107/75
f 78/108/76 80/129/78 79/109/77
f 80/110/78 82/113/80 81/111/79
f 82/113/80 84/115/82 83/114/81
f 84/115/82 86/120/84 85/116/83
f 30/119/28 28/130/26 26/131/24
f 26/131/24 88/132/86 86/133/84
f 86/133/84 84/134/82 82/135/80
f 82/135/80 80/136/78 78/137/76
f 78/137/76 76/138/74 74/139/72
f 74/139/72 72/140/70 70/141/68
f 70/141/68 68/142/66 66/143/64
f 66/143/64 64/144/62 62/117/60
f 62/117/60 60/145/58 58/146/56
f 58/146/56 56/147/54 54/148/52
f 54/148/52 52/149/50 50/150/48
f 50/150/48 48/151/46 46/118/44
f 46/118/44 44/152/42 42/153/40
f 42/153/40 40/154/38 38/155/36
f 38/155/36 36/156/34 34/157/32
f 34/157/32 32/158/30 30/119/28
f 30/119/28 26/131/24 86/133/84
f 86/133/84 82/135/80 78/137/76
f 78/137/76 74/139/72 70/141/68
f 70/141/68 66/143/64 62/117/60
f 62/117/60 58/146/56 54/148/52
f 54/148/52 50/150/48 46/118/44
f 46/118/44 42/153/40 38/155/36
f 38/155/36 34/157/32 30/119/28
f 30/119/28 86/133/84 78/137/76
f 78/137/76 70/141/68 62/117/60
f 62/117/60 54/148/52 46/118/44
f 46/118/44 38/155/36 30/119/28
f 30/119/28 78/137/76 62/117/60
f 86/120/84 88/122/86 87/121/85
f 88/122/86 26/52/24 25/54/23
f 87/125/85 25/159/23 27/160/25
f 27/160/25 29/161/27 31/162/29
f 31/162/29 33/163/31 35/164/33
f 35/164/33 37/165/35 39/166/37
f 39/166/37 41/167/39 43/168/41
f 43/168/41 45/169/43 47/170/45
f 47/170/45 49/171/47 51/172/49
f 51/172/49 53/173/51 55/123/53
f 55/123/53 57/174/55 59/175/57
f 59/175/57 61/176/59 63/177/61
f 63/177/61 65/178/63 67/138/65
f 67/138/65 69/179/67 71/124/69
f 71/124/69 73/180/71 75/181/73
f 75/181/73 77/182/75 79/183/77
f 79/183/77 81/184/79 83/185/81
f 83/185/81 85/186/83 87/125/85
f 87/125/85 27/160/25 31/162/29
f 31/162/29 35/164/33 39/166/37
f 39/166/37 43/168/41 47/170/45
f 47/170/45 51/172/49 55/123/53
f 55/123/53 59/175/57 63/177/61
f 63/177/61 67/138/65 71/124/69
f 71/124/69 75/181/73 79/183/77
f 79/183/77 83/185/81 87/125/85
f 87/125/85 31/162/29 39/166/37
f 39/166/37 47/170/45 55/123/53
f 55/123/53 63/177/61 71/124/69
f 71/124/69 79/183/77 87/125/85
f 87/125/85 39/166/37 55/123/53
