# Blender 4.4.3
# www.blender.org
mtllib tree.mtl
o Cylinder
v -0.000000 0.000000 -1.000000
v 0.000000 10.000000 -0.500000
v 0.195090 0.000000 -0.980785
v 0.097545 10.000000 -0.490393
v 0.382683 0.000000 -0.923880
v 0.191342 10.000000 -0.461940
v 0.555570 0.000000 -0.831470
v 0.277785 10.000000 -0.415735
v 0.707107 0.000000 -0.707107
v 0.353553 10.000000 -0.353553
v 0.831470 0.000000 -0.555570
v 0.415735 10.000000 -0.277785
v 0.923880 0.000000 -0.382683
v 0.461940 10.000000 -0.191342
v 0.980785 0.000000 -0.195090
v 0.490393 10.000000 -0.097545
v 1.000000 0.000000 0.000000
v 0.500000 10.000000 0.000000
v 0.980785 0.000000 0.195090
v 0.490393 10.000000 0.097545
v 0.923880 0.000000 0.382683
v 0.461940 10.000000 0.191342
v 0.831470 0.000000 0.555570
v 0.415735 10.000000 0.277785
v 0.707107 0.000000 0.707107
v 0.353553 10.000000 0.353553
v 0.555570 0.000000 0.831470
v 0.277785 10.000000 0.415735
v 0.382683 0.000000 0.923880
v 0.191342 10.000000 0.461940
v 0.195090 0.000000 0.980785
v 0.097545 10.000000 0.490393
v -0.000000 0.000000 1.000000
v 0.000000 10.000000 0.500000
v -0.195090 0.000000 0.980785
v -0.097545 10.000000 0.490393
v -0.382683 0.000000 0.923880
v -0.191342 10.000000 0.461940
v -0.555570 0.000000 0.831470
v -0.277785 10.000000 0.415735
v -0.707107 0.000000 0.707107
v -0.353553 10.000000 0.353553
v -0.831470 0.000000 0.555570
v -0.415735 10.000000 0.277785
v -0.923880 0.000000 0.382683
v -0.461940 10.000000 0.191342
v -0.980785 0.000000 0.195090
v -0.490393 10.000000 0.097545
v -1.000000 0.000000 0.000000
v -0.500000 10.000000 0.000000
v -0.980785 0.000000 -0.195090
v -0.490393 10.000000 -0.097545
v -0.923880 0.000000 -0.382683
v -0.461940 10.000000 -0.191342
v -0.831470 0.000000 -0.555570
v -0.415735 10.000000 -0.277785
v -0.707107 0.000000 -0.707107
v -0.353553 10.000000 -0.353553
v -0.555570 0.000000 -0.831470
v -0.277785 10.000000 -0.415735
v -0.382683 0.000000 -0.923880
v -0.191342 10.000000 -0.461940
v -0.195090 0.000000 -0.980785
v -0.097545 10.000000 -0.490393
v 0.000000 5.000000 -0.500000
v 0.097545 5.000000 -0.490393
v 0.191342 5.000000 -0.461940
v 0.277785 5.000000 -0.415735
v 0.353553 5.000000 -0.353553
v 0.415735 5.000000 -0.277785
v 0.461940 5.000000 -0.191342
v 0.490393 5.000000 -0.097545
v 0.500000 5.000000 0.000000
v 0.490393 5.000000 0.097545
v 0.461940 5.000000 0.191342
v 0.415735 5.000000 0.277785
v 0.353553 5.000000 0.353553
v 0.277785 5.000000 0.415735
v 0.191342 5.000000 0.461940
v 0.097545 5.000000 0.490393
v 0.000000 5.000000 0.500000
v -0.097545 5.000000 0.490393
v -0.191342 5.000000 0.461940
v -0.277785 5.000000 0.415735
v -0.353553 5.000000 0.353553
v -0.415735 5.000000 0.277785
v -0.461940 5.000000 0.191342
v -0.490393 5.000000 0.097545
v -0.500000 5.000000 0.000000
v -0.490393 5.000000 -0.097545
v -0.461940 5.000000 -0.191342
v -0.415735 5.000000 -0.277785
v -0.353553 5.000000 -0.353553
v -0.277785 5.000000 -0.415735
v -0.191342 5.000000 -0.461940
v -0.097545 5.000000 -0.490393
v 0.097545 2.500000 -0.490393
v 0.191342 2.500000 -0.461940
v 0.277785 2.500000 -0.415735
v 0.353553 2.500000 -0.353553
v 0.415735 2.500000 -0.277785
v 0.461940 2.500000 -0.191342
v 0.490393 2.500000 -0.097545
v 0.500000 2.500000 0.000000
v 0.490393 2.500000 0.097545
v 0.461940 2.500000 0.191342
v 0.415735 2.500000 0.277785
v 0.353553 2.500000 0.353553
v 0.277785 2.500000 0.415735
v 0.191342 2.500000 0.461940
v 0.097545 2.500000 0.490393
v 0.000000 2.500000 0.500000
v -0.097545 2.500000 0.490393
v -0.191342 2.500000 0.461940
v -0.277785 2.500000 0.415735
v -0.353553 2.500000 0.353553
v -0.415735 2.500000 0.277785
v -0.461940 2.500000 0.191342
v -0.490393 2.500000 0.097545
v -0.500000 2.500000 0.000000
v -0.490393 2.500000 -0.097545
v -0.461940 2.500000 -0.191342
v -0.415735 2.500000 -0.277785
v -0.353553 2.500000 -0.353553
v -0.277785 2.500000 -0.415735
v -0.191342 2.500000 -0.461940
v -0.097545 2.500000 -0.490393
v 0.000000 2.500000 -0.500000
v 0.117054 1.250000 -0.588471
v 0.229610 1.250000 -0.554328
v 0.333342 1.250000 -0.498882
v 0.424264 1.250000 -0.424264
v 0.498882 1.250000 -0.333342
v 0.554328 1.250000 -0.229610
v 0.588471 1.250000 -0.117054
v 0.600000 1.250000 -0.000000
v 0.588471 1.250000 0.117054
v 0.554328 1.250000 0.229610
v 0.498882 1.250000 0.333342
v 0.424264 1.250000 0.424264
v 0.333342 1.250000 0.498882
v 0.229610 1.250000 0.554328
v 0.117054 1.250000 0.588471
v -0.000000 1.250000 0.600000
v -0.117054 1.250000 0.588471
v -0.229610 1.250000 0.554328
v -0.333342 1.250000 0.498882
v -0.424264 1.250000 0.424264
v -0.498882 1.250000 0.333342
v -0.554328 1.250000 0.229610
v -0.588471 1.250000 0.117054
v -0.600000 1.250000 -0.000000
v -0.588471 1.250000 -0.117054
v -0.554328 1.250000 -0.229610
v -0.498882 1.250000 -0.333342
v -0.424264 1.250000 -0.424264
v -0.333342 1.250000 -0.498882
v -0.229610 1.250000 -0.554328
v -0.117054 1.250000 -0.588471
v -0.000000 1.250000 -0.600000
vn 0.0980 -0.0000 -0.9952
vn 0.2903 -0.0000 -0.9569
vn 0.4714 -0.0000 -0.8819
vn 0.6344 -0.0000 -0.7730
vn 0.7730 -0.0000 -0.6344
vn 0.8819 -0.0000 -0.4714
vn 0.9569 -0.0000 -0.2903
vn 0.9952 -0.0000 -0.0980
vn 0.9952 -0.0000 0.0980
vn 0.9569 -0.0000 0.2903
vn 0.8819 -0.0000 0.4714
vn 0.7730 -0.0000 0.6344
vn 0.6344 -0.0000 0.7730
vn 0.4714 -0.0000 0.8819
vn 0.2903 -0.0000 0.9569
vn 0.0980 -0.0000 0.9952
vn -0.0980 -0.0000 0.9952
vn -0.2903 -0.0000 0.9569
vn -0.4714 -0.0000 0.8819
vn -0.6344 -0.0000 0.7730
vn -0.7730 -0.0000 0.6344
vn -0.8819 -0.0000 0.4714
vn -0.9569 -0.0000 0.2903
vn -0.9952 -0.0000 0.0980
vn -0.9952 -0.0000 -0.0980
vn -0.9569 -0.0000 -0.2903
vn -0.8819 -0.0000 -0.4714
vn -0.7730 -0.0000 -0.6344
vn -0.6344 -0.0000 -0.7730
vn -0.4714 -0.0000 -0.8819
vn -0.0000 1.0000 -0.0000
vn -0.2903 -0.0000 -0.9569
vn -0.0980 -0.0000 -0.9952
vn -0.0000 -1.0000 -0.0000
vn 0.0977 0.0794 -0.9920
vn 0.2894 0.0794 -0.9539
vn 0.4699 0.0794 -0.8791
vn 0.6324 0.0794 -0.7706
vn 0.7706 0.0794 -0.6324
vn 0.8791 0.0794 -0.4699
vn 0.9539 0.0794 -0.2894
vn 0.9920 0.0794 -0.0977
vn 0.9920 0.0794 0.0977
vn 0.9539 0.0794 0.2894
vn 0.8791 0.0794 0.4699
vn 0.7706 0.0794 0.6324
vn 0.6324 0.0794 0.7706
vn 0.4699 0.0794 0.8791
vn 0.2894 0.0794 0.9539
vn 0.0977 0.0794 0.9920
vn -0.0977 0.0794 0.9920
vn -0.2894 0.0794 0.9539
vn -0.4699 0.0794 0.8791
vn -0.6324 0.0794 0.7706
vn -0.7706 0.0794 0.6324
vn -0.8791 0.0794 0.4699
vn -0.9539 0.0794 0.2894
vn -0.9920 0.0794 0.0977
vn -0.9920 0.0794 -0.0977
vn -0.9539 0.0794 -0.2894
vn -0.8791 0.0794 -0.4699
vn -0.7706 0.0794 -0.6324
vn -0.6324 0.0794 -0.7706
vn -0.4699 0.0794 -0.8791
vn -0.2894 0.0794 -0.9539
vn -0.0977 0.0794 -0.9920
vn -0.0934 0.3034 -0.9483
vn -0.2766 0.3034 -0.9118
vn -0.4492 0.3034 -0.8403
vn -0.6045 0.3034 -0.7366
vn -0.7366 0.3034 -0.6045
vn -0.8403 0.3034 -0.4492
vn -0.9118 0.3034 -0.2766
vn -0.9483 0.3034 -0.0934
vn -0.9483 0.3034 0.0934
vn -0.9118 0.3034 0.2766
vn -0.8403 0.3034 0.4492
vn -0.7366 0.3034 0.6045
vn -0.6045 0.3034 0.7366
vn -0.4492 0.3034 0.8403
vn -0.2766 0.3034 0.9118
vn -0.0934 0.3034 0.9483
vn 0.0934 0.3034 0.9483
vn 0.2766 0.3034 0.9118
vn 0.4492 0.3034 0.8403
vn 0.6045 0.3034 0.7366
vn 0.7366 0.3034 0.6045
vn 0.8403 0.3034 0.4492
vn 0.9118 0.3034 0.2766
vn 0.9483 0.3034 0.0934
vn 0.9483 0.3034 -0.0934
vn 0.9118 0.3034 -0.2766
vn 0.8403 0.3034 -0.4492
vn 0.7366 0.3034 -0.6045
vn 0.6045 0.3034 -0.7366
vn 0.4492 0.3034 -0.8403
vn 0.2766 0.3034 -0.9118
vn 0.0934 0.3034 -0.9483
vt 0.500000 -0.000000
vt 0.531250 1.000000
vt 0.500000 1.000000
vt 0.531250 -0.000000
vt 0.562500 1.000000
vt 0.562500 -0.000000
vt 0.593750 1.000000
vt 0.593750 -0.000000
vt 0.625000 1.000000
vt 0.625000 -0.000000
vt 0.656250 1.000000
vt 0.656250 -0.000000
vt 0.687500 1.000000
vt 0.687500 -0.000000
vt 0.718750 1.000000
vt 0.718750 -0.000000
vt 0.750000 1.000000
vt 0.750000 -0.000000
vt 0.781250 1.000000
vt 0.781250 -0.000000
vt 0.812500 1.000000
vt 0.812500 -0.000000
vt 0.843750 1.000000
vt 0.843750 -0.000000
vt 0.875000 1.000000
vt 0.875000 -0.000000
vt 0.906250 1.000000
vt 0.906250 -0.000000
vt 0.937500 1.000000
vt 0.937500 -0.000000
vt 0.968750 1.000000
vt 0.968750 -0.000000
vt 1.000000 1.000000
vt 0.000000 -0.000000
vt 0.031250 1.000000
vt 0.000000 1.000000
vt 0.031250 -0.000000
vt 0.062500 1.000000
vt 0.062500 -0.000000
vt 0.093750 1.000000
vt 0.093750 -0.000000
vt 0.125000 1.000000
vt 0.125000 -0.000000
vt 0.156250 1.000000
vt 0.156250 -0.000000
vt 0.187500 1.000000
vt 0.187500 -0.000000
vt 0.218750 1.000000
vt 0.218750 -0.000000
vt 0.250000 1.000000
vt 0.250000 -0.000000
vt 0.281250 1.000000
vt 0.281250 -0.000000
vt 0.312500 1.000000
vt 0.312500 -0.000000
vt 0.343750 1.000000
vt 0.343750 -0.000000
vt 0.375000 1.000000
vt 0.375000 -0.000000
vt 0.406250 1.000000
vt 0.406250 -0.000000
vt 0.437500 1.000000
vt 0.684210 0.014226
vt 0.735774 0.184210
vt 0.565790 0.235774
vt 0.437500 -0.000000
vt 0.468750 1.000000
vt 0.468750 -0.000000
vt 0.409366 0.055812
vt 0.444188 0.409366
vt 0.090634 0.444188
vt 0.468750 0.000000
vt 0.437500 0.000000
vt 0.437500 1.000000
vt 0.406250 0.000000
vt 0.375000 0.000000
vt 0.343750 0.000000
vt 0.312500 0.000000
vt 0.281250 0.000000
vt 0.250000 0.000000
vt 0.218750 0.000000
vt 0.187500 0.000000
vt 0.187500 1.000000
vt 0.156250 0.000000
vt 0.125000 0.000000
vt 0.093750 0.000000
vt 0.093750 1.000000
vt 0.062500 0.000000
vt 0.062500 1.000000
vt 0.031250 0.000000
vt 0.031250 1.000000
vt 0.000000 0.000000
vt 0.968750 0.000000
vt 0.937500 -0.000000
vt 0.906250 0.000000
vt 0.875000 0.000000
vt 0.843750 0.000000
vt 0.812500 0.000000
vt 0.781250 0.000000
vt 0.750000 0.000000
vt 0.718750 0.000000
vt 0.687500 0.000000
vt 0.656250 0.000000
vt 0.625000 0.000000
vt 0.593750 0.000000
vt 0.562500 0.000000
vt 0.531250 0.000000
vt 0.500000 0.000000
vt 0.500000 1.000000
vt 0.468947 0.500000
vt 0.500000 0.500000
vt 0.468947 1.000000
vt 0.437893 0.500000
vt 0.437893 1.000000
vt 0.406840 0.500000
vt 0.406840 1.000000
vt 0.375787 0.500000
vt 0.344734 1.000000
vt 0.344734 0.500000
vt 0.313681 0.500000
vt 0.313681 1.000000
vt 0.282628 0.500000
vt 0.282628 1.000000
vt 0.251575 0.500000
vt 0.251575 1.000000
vt 0.220522 0.500000
vt 0.220521 1.000000
vt 0.189468 0.500000
vt 0.189468 1.000000
vt 0.158415 0.500000
vt 0.158415 1.000000
vt 0.127362 0.500000
vt 0.096309 1.000000
vt 0.096309 0.500000
vt 0.065256 0.500000
vt 0.065256 1.000000
vt 0.034203 0.500000
vt 0.034203 1.000000
vt 0.000000 0.500000
vt 1.000000 0.500000
vt 0.965798 1.000000
vt 0.965798 0.500000
vt 0.934744 0.500000
vt 0.934744 1.000000
vt 0.903691 0.500000
vt 0.903691 1.000000
vt 0.872638 0.500000
vt 0.841585 1.000000
vt 0.841585 0.500000
vt 0.810532 0.500000
vt 0.810532 1.000000
vt 0.779478 0.500000
vt 0.779478 1.000000
vt 0.748425 0.500000
vt 0.717372 1.000000
vt 0.717372 0.500000
vt 0.686319 0.500000
vt 0.686319 1.000000
vt 0.655266 0.500000
vt 0.655266 1.000000
vt 0.624213 0.500000
vt 0.593159 1.000000
vt 0.593159 0.500000
vt 0.562106 0.500000
vt 0.562106 1.000000
vt 0.531053 0.500000
vt 0.531053 1.000000
vt 0.530988 0.500000
vt 0.500000 0.000000
vt 0.530988 0.000000
vt 0.561976 0.500000
vt 0.561976 0.000000
vt 0.592964 0.500000
vt 0.592964 0.000000
vt 0.623952 0.000000
vt 0.654941 0.500000
vt 0.654941 0.000000
vt 0.685929 0.000000
vt 0.716917 0.500000
vt 0.716917 0.000000
vt 0.747905 0.500000
vt 0.747905 0.000000
vt 0.778893 0.500000
vt 0.778893 0.000000
vt 0.809882 0.500000
vt 0.809881 0.000000
vt 0.840870 0.500000
vt 0.840870 0.000000
vt 0.871858 0.000000
vt 0.902846 0.500000
vt 0.902846 0.000000
vt 0.933834 0.000000
vt 0.964823 0.500000
vt 0.964822 0.000000
vt 1.000000 0.500000
vt 1.000000 0.000000
vt 0.035178 0.500000
vt 0.000000 0.000000
vt 0.035178 0.000000
vt 0.066166 0.500000
vt 0.066166 0.000000
vt 0.097154 0.500000
vt 0.097154 0.000000
vt 0.128142 0.000000
vt 0.159131 0.500000
vt 0.159130 0.000000
vt 0.190119 0.000000
vt 0.221107 0.500000
vt 0.221107 0.000000
vt 0.252095 0.500000
vt 0.252095 0.000000
vt 0.283083 0.500000
vt 0.283083 0.000000
vt 0.314071 0.500000
vt 0.314071 0.000000
vt 0.345059 0.500000
vt 0.345059 0.000000
vt 0.376047 0.000000
vt 0.407035 0.500000
vt 0.407035 0.000000
vt 0.438024 0.000000
vt 0.469012 0.500000
vt 0.469012 0.000000
vt 0.500000 0.500000
vt 0.545317 0.222094
vt 0.527906 0.204683
vt 0.514226 0.184210
vt 0.504804 0.161461
vt 0.500000 0.137311
vt 0.500000 0.112689
vt 0.504804 0.088539
vt 0.514226 0.065790
vt 0.527906 0.045317
vt 0.545317 0.027906
vt 0.565790 0.014226
vt 0.588539 0.004804
vt 0.612689 0.000000
vt 0.637311 0.000000
vt 0.661461 0.004804
vt 0.704683 0.027906
vt 0.722094 0.045317
vt 0.735774 0.065790
vt 0.745196 0.088539
vt 0.750000 0.112689
vt 0.750000 0.137311
vt 0.745196 0.161461
vt 0.722094 0.204683
vt 0.704683 0.222094
vt 0.684210 0.235774
vt 0.661461 0.245196
vt 0.637311 0.250000
vt 0.612689 0.250000
vt 0.588539 0.245196
vt 0.055812 0.409366
vt 0.028453 0.368419
vt 0.009607 0.322922
vt 0.000000 0.274623
vt 0.000000 0.225377
vt 0.009607 0.177078
vt 0.028453 0.131581
vt 0.055812 0.090634
vt 0.090634 0.055812
vt 0.131581 0.028453
vt 0.177078 0.009607
vt 0.225377 0.000000
vt 0.274623 0.000000
vt 0.322922 0.009607
vt 0.368419 0.028453
vt 0.444188 0.090634
vt 0.471547 0.131581
vt 0.490393 0.177078
vt 0.500000 0.225377
vt 0.500000 0.274623
vt 0.490393 0.322922
vt 0.471547 0.368419
vt 0.409366 0.444188
vt 0.368419 0.471547
vt 0.322922 0.490393
vt 0.274623 0.500000
vt 0.225377 0.500000
vt 0.177078 0.490393
vt 0.131581 0.471547
vt 0.375787 1.000000
vt 0.127362 1.000000
vt 0.000000 1.000000
vt 0.872638 1.000000
vt 0.748425 1.000000
vt 0.624212 1.000000
vt 0.623952 0.500000
vt 0.685929 0.500000
vt 0.871858 0.500000
vt 0.933834 0.500000
vt 0.000000 0.500000
vt 0.128142 0.500000
vt 0.190119 0.500000
vt 0.376047 0.500000
vt 0.438024 0.500000
s 0
f 2/1/1 66/2/1 65/3/1
f 4/4/2 67/5/2 66/2/2
f 6/6/3 68/7/3 67/5/3
f 8/8/4 69/9/4 68/7/4
f 10/10/5 70/11/5 69/9/5
f 12/12/6 71/13/6 70/11/6
f 14/14/7 72/15/7 71/13/7
f 16/16/8 73/17/8 72/15/8
f 18/18/9 74/19/9 73/17/9
f 20/20/10 75/21/10 74/19/10
f 22/22/11 76/23/11 75/21/11
f 24/24/12 77/25/12 76/23/12
f 26/26/13 78/27/13 77/25/13
f 28/28/14 79/29/14 78/27/14
f 30/30/15 80/31/15 79/29/15
f 32/32/16 81/33/16 80/31/16
f 34/34/17 82/35/17 81/36/17
f 36/37/18 83/38/18 82/35/18
f 38/39/19 84/40/19 83/38/19
f 40/41/20 85/42/20 84/40/20
f 42/43/21 86/44/21 85/42/21
f 44/45/22 87/46/22 86/44/22
f 46/47/23 88/48/23 87/46/23
f 48/49/24 89/50/24 88/48/24
f 50/51/25 90/52/25 89/50/25
f 52/53/26 91/54/26 90/52/26
f 54/55/27 92/56/27 91/54/27
f 56/57/28 93/58/28 92/56/28
f 58/59/29 94/60/29 93/58/29
f 60/61/30 95/62/30 94/60/30
f 38/63/31 22/64/31 6/65/31
f 62/66/32 96/67/32 95/62/32
f 64/68/33 65/3/33 96/67/33
f 31/69/34 47/70/34 63/71/34
f 96/72/33 128/3/33 127/67/33
f 95/73/32 127/67/32 126/74/32
f 94/75/30 126/74/30 125/60/30
f 93/76/29 125/60/29 124/58/29
f 92/77/28 124/58/28 123/56/28
f 91/78/27 123/56/27 122/54/27
f 90/79/26 122/54/26 121/52/26
f 89/80/25 121/52/25 120/50/25
f 88/81/24 120/50/24 119/48/24
f 87/82/23 119/48/23 118/83/23
f 86/84/22 118/83/22 117/44/22
f 85/85/21 117/44/21 116/42/21
f 84/86/20 116/42/20 115/87/20
f 83/88/19 115/87/19 114/89/19
f 82/90/18 114/89/18 113/91/18
f 81/92/17 113/91/17 112/36/17
f 80/93/16 112/33/16 111/31/16
f 79/94/15 111/31/15 110/29/15
f 78/95/14 110/29/14 109/27/14
f 77/96/13 109/27/13 108/25/13
f 76/97/12 108/25/12 107/23/12
f 75/98/11 107/23/11 106/21/11
f 74/99/10 106/21/10 105/19/10
f 73/100/9 105/19/9 104/17/9
f 72/101/8 104/17/8 103/15/8
f 71/102/7 103/15/7 102/13/7
f 70/103/6 102/13/6 101/11/6
f 69/104/5 101/11/5 100/9/5
f 68/105/4 100/9/4 99/7/4
f 67/106/3 99/7/3 98/5/3
f 66/107/2 98/5/2 97/2/2
f 65/108/1 97/2/1 128/3/1
f 128/109/35 129/110/35 160/111/35
f 97/112/36 130/113/36 129/110/36
f 98/114/37 131/115/37 130/113/37
f 99/116/38 132/117/38 131/115/38
f 132/117/39 101/118/39 133/119/39
f 101/118/40 134/120/40 133/119/40
f 102/121/41 135/122/41 134/120/41
f 103/123/42 136/124/42 135/122/42
f 104/125/43 137/126/43 136/124/43
f 105/127/44 138/128/44 137/126/44
f 106/129/45 139/130/45 138/128/45
f 107/131/46 140/132/46 139/130/46
f 140/132/47 109/133/47 141/134/47
f 109/133/48 142/135/48 141/134/48
f 110/136/49 143/137/49 142/135/49
f 111/138/50 144/139/50 143/137/50
f 144/140/51 113/141/51 145/142/51
f 113/141/52 146/143/52 145/142/52
f 114/144/53 147/145/53 146/143/53
f 115/146/54 148/147/54 147/145/54
f 148/147/55 117/148/55 149/149/55
f 117/148/56 150/150/56 149/149/56
f 118/151/57 151/152/57 150/150/57
f 119/153/58 152/154/58 151/152/58
f 152/154/59 121/155/59 153/156/59
f 121/155/60 154/157/60 153/156/60
f 122/158/61 155/159/61 154/157/61
f 123/160/62 156/161/62 155/159/62
f 156/161/63 125/162/63 157/163/63
f 125/162/64 158/164/64 157/163/64
f 126/165/65 159/166/65 158/164/65
f 127/167/66 160/111/66 159/166/66
f 159/168/67 1/169/67 63/170/67
f 158/171/68 63/170/68 61/172/68
f 157/173/69 61/172/69 59/174/69
f 57/175/70 157/173/70 59/174/70
f 155/176/71 57/175/71 55/177/71
f 53/178/72 155/176/72 55/177/72
f 153/179/73 53/178/73 51/180/73
f 152/181/74 51/180/74 49/182/74
f 151/183/75 49/182/75 47/184/75
f 150/185/76 47/184/76 45/186/76
f 149/187/77 45/186/77 43/188/77
f 41/189/78 149/187/78 43/188/78
f 147/190/79 41/189/79 39/191/79
f 37/192/80 147/190/80 39/191/80
f 145/193/81 37/192/81 35/194/81
f 144/195/82 35/194/82 33/196/82
f 143/197/83 33/198/83 31/199/83
f 142/200/84 31/199/84 29/201/84
f 141/202/85 29/201/85 27/203/85
f 25/204/86 141/202/86 27/203/86
f 139/205/87 25/204/87 23/206/87
f 21/207/88 139/205/88 23/206/88
f 137/208/89 21/207/89 19/209/89
f 136/210/90 19/209/90 17/211/90
f 135/212/91 17/211/91 15/213/91
f 134/214/92 15/213/92 13/215/92
f 133/216/93 13/215/93 11/217/93
f 9/218/94 133/216/94 11/217/94
f 131/219/95 9/218/95 7/220/95
f 5/221/96 131/219/96 7/220/96
f 129/222/97 5/221/97 3/223/97
f 160/224/98 3/223/98 1/169/98
f 2/1/1 4/4/1 66/2/1
f 4/4/2 6/6/2 67/5/2
f 6/6/3 8/8/3 68/7/3
f 8/8/4 10/10/4 69/9/4
f 10/10/5 12/12/5 70/11/5
f 12/12/6 14/14/6 71/13/6
f 14/14/7 16/16/7 72/15/7
f 16/16/8 18/18/8 73/17/8
f 18/18/9 20/20/9 74/19/9
f 20/20/10 22/22/10 75/21/10
f 22/22/11 24/24/11 76/23/11
f 24/24/12 26/26/12 77/25/12
f 26/26/13 28/28/13 78/27/13
f 28/28/14 30/30/14 79/29/14
f 30/30/15 32/32/15 80/31/15
f 32/32/16 34/196/16 81/33/16
f 34/34/17 36/37/17 82/35/17
f 36/37/18 38/39/18 83/38/18
f 38/39/19 40/41/19 84/40/19
f 40/41/20 42/43/20 85/42/20
f 42/43/21 44/45/21 86/44/21
f 44/45/22 46/47/22 87/46/22
f 46/47/23 48/49/23 88/48/23
f 48/49/24 50/51/24 89/50/24
f 50/51/25 52/53/25 90/52/25
f 52/53/26 54/55/26 91/54/26
f 54/55/27 56/57/27 92/56/27
f 56/57/28 58/59/28 93/58/28
f 58/59/29 60/61/29 94/60/29
f 60/61/30 62/66/30 95/62/30
f 6/65/31 4/225/31 2/226/31
f 2/226/31 64/227/31 62/228/31
f 62/228/31 60/229/31 58/230/31
f 58/230/31 56/231/31 54/232/31
f 54/232/31 52/233/31 50/234/31
f 50/234/31 48/235/31 46/236/31
f 46/236/31 44/237/31 42/238/31
f 42/238/31 40/239/31 38/63/31
f 38/63/31 36/240/31 34/241/31
f 34/241/31 32/242/31 30/243/31
f 30/243/31 28/244/31 26/245/31
f 26/245/31 24/246/31 22/64/31
f 22/64/31 20/247/31 18/248/31
f 18/248/31 16/249/31 14/250/31
f 14/250/31 12/251/31 10/252/31
f 10/252/31 8/253/31 6/65/31
f 6/65/31 2/226/31 62/228/31
f 62/228/31 58/230/31 54/232/31
f 54/232/31 50/234/31 46/236/31
f 46/236/31 42/238/31 38/63/31
f 38/63/31 34/241/31 30/243/31
f 30/243/31 26/245/31 22/64/31
f 22/64/31 18/248/31 14/250/31
f 14/250/31 10/252/31 6/65/31
f 6/65/31 62/228/31 54/232/31
f 54/232/31 46/236/31 38/63/31
f 38/63/31 30/243/31 22/64/31
f 22/64/31 14/250/31 6/65/31
f 6/65/31 54/232/31 38/63/31
f 62/66/32 64/68/32 96/67/32
f 64/68/33 2/1/33 65/3/33
f 63/71/34 1/254/34 3/255/34
f 3/255/34 5/256/34 7/257/34
f 7/257/34 9/258/34 11/259/34
f 11/259/34 13/260/34 15/261/34
f 15/261/34 17/262/34 19/263/34
f 19/263/34 21/264/34 23/265/34
f 23/265/34 25/266/34 27/267/34
f 27/267/34 29/268/34 31/69/34
f 31/69/34 33/269/34 35/270/34
f 35/270/34 37/271/34 39/272/34
f 39/272/34 41/273/34 43/274/34
f 43/274/34 45/275/34 47/70/34
f 47/70/34 49/276/34 51/277/34
f 51/277/34 53/278/34 55/279/34
f 55/279/34 57/280/34 59/281/34
f 59/281/34 61/282/34 63/71/34
f 63/71/34 3/255/34 7/257/34
f 7/257/34 11/259/34 15/261/34
f 15/261/34 19/263/34 23/265/34
f 23/265/34 27/267/34 31/69/34
f 31/69/34 35/270/34 39/272/34
f 39/272/34 43/274/34 47/70/34
f 47/70/34 51/277/34 55/279/34
f 55/279/34 59/281/34 63/71/34
f 63/71/34 7/257/34 15/261/34
f 15/261/34 23/265/34 31/69/34
f 31/69/34 39/272/34 47/70/34
f 47/70/34 55/279/34 63/71/34
f 63/71/34 15/261/34 31/69/34
f 96/72/33 65/108/33 128/3/33
f 95/73/32 96/72/32 127/67/32
f 94/75/30 95/73/30 126/74/30
f 93/76/29 94/75/29 125/60/29
f 92/77/28 93/76/28 124/58/28
f 91/78/27 92/77/27 123/56/27
f 90/79/26 91/78/26 122/54/26
f 89/80/25 90/79/25 121/52/25
f 88/81/24 89/80/24 120/50/24
f 87/82/23 88/81/23 119/48/23
f 86/84/22 87/82/22 118/83/22
f 85/85/21 86/84/21 117/44/21
f 84/86/20 85/85/20 116/42/20
f 83/88/19 84/86/19 115/87/19
f 82/90/18 83/88/18 114/89/18
f 81/92/17 82/90/17 113/91/17
f 80/93/16 81/196/16 112/33/16
f 79/94/15 80/93/15 111/31/15
f 78/95/14 79/94/14 110/29/14
f 77/96/13 78/95/13 109/27/13
f 76/97/12 77/96/12 108/25/12
f 75/98/11 76/97/11 107/23/11
f 74/99/10 75/98/10 106/21/10
f 73/100/9 74/99/9 105/19/9
f 72/101/8 73/100/8 104/17/8
f 71/102/7 72/101/7 103/15/7
f 70/103/6 71/102/6 102/13/6
f 69/104/5 70/103/5 101/11/5
f 68/105/4 69/104/4 100/9/4
f 67/106/3 68/105/3 99/7/3
f 66/107/2 67/106/2 98/5/2
f 65/108/1 66/107/1 97/2/1
f 128/109/35 97/112/35 129/110/35
f 97/112/36 98/114/36 130/113/36
f 98/114/37 99/116/37 131/115/37
f 99/116/38 100/283/38 132/117/38
f 132/117/39 100/283/39 101/118/39
f 101/118/40 102/121/40 134/120/40
f 102/121/41 103/123/41 135/122/41
f 103/123/42 104/125/42 136/124/42
f 104/125/43 105/127/43 137/126/43
f 105/127/44 106/129/44 138/128/44
f 106/129/45 107/131/45 139/130/45
f 107/131/46 108/284/46 140/132/46
f 140/132/47 108/284/47 109/133/47
f 109/133/48 110/136/48 142/135/48
f 110/136/49 111/138/49 143/137/49
f 111/138/50 112/285/50 144/139/50
f 144/140/51 112/33/51 113/141/51
f 113/141/52 114/144/52 146/143/52
f 114/144/53 115/146/53 147/145/53
f 115/146/54 116/286/54 148/147/54
f 148/147/55 116/286/55 117/148/55
f 117/148/56 118/151/56 150/150/56
f 118/151/57 119/153/57 151/152/57
f 119/153/58 120/287/58 152/154/58
f 152/154/59 120/287/59 121/155/59
f 121/155/60 122/158/60 154/157/60
f 122/158/61 123/160/61 155/159/61
f 123/160/62 124/288/62 156/161/62
f 156/161/63 124/288/63 125/162/63
f 125/162/64 126/165/64 158/164/64
f 126/165/65 127/167/65 159/166/65
f 127/167/66 128/109/66 160/111/66
f 159/168/67 160/224/67 1/169/67
f 158/171/68 159/168/68 63/170/68
f 157/173/69 158/171/69 61/172/69
f 57/175/70 156/289/70 157/173/70
f 155/176/71 156/289/71 57/175/71
f 53/178/72 154/290/72 155/176/72
f 153/179/73 154/290/73 53/178/73
f 152/181/74 153/179/74 51/180/74
f 151/183/75 152/181/75 49/182/75
f 150/185/76 151/183/76 47/184/76
f 149/187/77 150/185/77 45/186/77
f 41/189/78 148/291/78 149/187/78
f 147/190/79 148/291/79 41/189/79
f 37/192/80 146/292/80 147/190/80
f 145/193/81 146/292/81 37/192/81
f 144/195/82 145/193/82 35/194/82
f 143/197/83 144/293/83 33/198/83
f 142/200/84 143/197/84 31/199/84
f 141/202/85 142/200/85 29/201/85
f 25/204/86 140/294/86 141/202/86
f 139/205/87 140/294/87 25/204/87
f 21/207/88 138/295/88 139/205/88
f 137/208/89 138/295/89 21/207/89
f 136/210/90 137/208/90 19/209/90
f 135/212/91 136/210/91 17/211/91
f 134/214/92 135/212/92 15/213/92
f 133/216/93 134/214/93 13/215/93
f 9/218/94 132/296/94 133/216/94
f 131/219/95 132/296/95 9/218/95
f 5/221/96 130/297/96 131/219/96
f 129/222/97 130/297/97 5/221/97
f 160/224/98 129/222/98 3/223/98
